<?xml version="1.0" standalone="no"?>
<!DOCTYPE svg PUBLIC "-//W3C//DTD SVG 1.1//EN" "http://www.w3.org/Graphics/SVG/1.1/DTD/svg11.dtd" >
<svg xmlns="http://www.w3.org/2000/svg" xmlns:xlink="http://www.w3.org/1999/xlink" version="1.1">
<metadata>
Created by FontForge 20141024 at Tue Jan 20 01:41:31 2015
 By System Administrator
Copyright (C) 2001, 2008 Hoefler &#38; Frere-Jones. http://www.typography.com
</metadata>
<defs>
<font id="GothamCondensed-Medium" horiz-adv-x="240" >
  <font-face 
    font-family="Gotham Condensed Medium"
    font-weight="350"
    font-stretch="condensed"
    units-per-em="1000"
    panose-1="0 0 0 0 0 0 0 0 0 0"
    ascent="800"
    descent="-200"
    x-height="533"
    cap-height="700"
    bbox="-138 -218 781 930"
    underline-thickness="50"
    underline-position="-50"
    stemh="90"
    stemv="95"
    unicode-range="U+0020-FB04"
  />
<missing-glyph horiz-adv-x="500" 
d="M0 -200v1000h500v-1000h-500zM71 750l179 -390l179 390h-358zM50 -76l172 376l-172 376v-752zM450 676l-172 -376l172 -376v752zM250 240l-179 -390h358z" />
    <glyph glyph-name="f_f" unicode="ff" horiz-adv-x="452" 
d="M54 0v454h-39v79h39v45c0 44 11 77 33 98c21 21 53 32 93 32c16 0 29 -2 40 -4v-81c-6 1 -12 2 -19 2c-32 0 -51 -19 -51 -60v-32h67v-79h-67v-454h-96zM280 0v454h-38v79h38v45c0 44 11 77 33 98c21 21 53 32 92 32c17 0 30 -2 40 -4v-81c-5 1 -12 2 -18 2
c-33 0 -52 -19 -52 -60v-32h69v-79h-69v-454h-95z" />
    <glyph glyph-name="fi" unicode="fi" horiz-adv-x="407" 
d="M54 0v454h-39v79h39v45c0 44 11 77 33 98c21 21 53 32 93 32c16 0 29 -2 40 -4v-81c-6 1 -12 2 -19 2c-32 0 -51 -19 -51 -60v-32h68v-79h-68v-454h-96zM270 0v533h95v-533h-95zM269 602v104h98v-104h-98z" />
    <glyph glyph-name="fl" unicode="fl" horiz-adv-x="407" 
d="M54 0v454h-39v79h39v45c0 44 11 77 33 98c21 21 53 32 93 32c16 0 29 -2 40 -4v-81c-6 1 -12 2 -19 2c-32 0 -51 -19 -51 -60v-32h68v-79h-68v-454h-96zM270 0v706h95v-706h-95z" />
    <glyph glyph-name="f_f_i" unicode="ffi" horiz-adv-x="633" 
d="M54 0v454h-39v79h39v45c0 44 11 77 33 98c21 21 53 32 93 32c16 0 29 -2 40 -4v-81c-6 1 -12 2 -19 2c-32 0 -51 -19 -51 -60v-32h67v-79h-67v-454h-96zM280 0v454h-38v79h38v45c0 44 11 77 33 98c21 21 53 32 92 32c17 0 30 -2 40 -4v-81c-5 1 -12 2 -18 2
c-33 0 -52 -19 -52 -60v-32h69v-79h-69v-454h-95zM496 0v533h95v-533h-95zM495 602v104h97v-104h-97z" />
    <glyph glyph-name="f_f_l" unicode="ffl" horiz-adv-x="633" 
d="M54 0v454h-39v79h39v45c0 44 11 77 33 98c21 21 53 32 93 32c16 0 29 -2 40 -4v-81c-6 1 -12 2 -19 2c-32 0 -51 -19 -51 -60v-32h67v-79h-67v-454h-96zM280 0v454h-38v79h38v45c0 44 11 77 33 98c21 21 53 32 92 32c17 0 30 -2 40 -4v-81c-5 1 -12 2 -18 2
c-33 0 -52 -19 -52 -60v-32h69v-79h-69v-454h-95zM496 0v706h95v-706h-95z" />
    <glyph glyph-name=".notdef" horiz-adv-x="500" 
d="M0 -200v1000h500v-1000h-500zM71 750l179 -390l179 390h-358zM50 -76l172 376l-172 376v-752zM450 676l-172 -376l172 -376v752zM250 240l-179 -390h358z" />
    <glyph glyph-name="A" unicode="A" horiz-adv-x="402" 
d="M9 0l139 702h106l139 -702h-100l-28 156h-132l-28 -156h-96zM148 245h102l-51 281z" />
    <glyph glyph-name="B" unicode="B" horiz-adv-x="386" 
d="M42 0v700h100c68 0 130 -18 169 -57c30 -30 47 -69 47 -120v-4c0 -94 -54 -139 -110 -161c67 -24 119 -70 119 -161v-7c0 -121 -93 -190 -227 -190h-98zM260 505v2c0 68 -42 102 -106 102h-15v-213h11c69 0 110 39 110 109zM268 202c0 69 -46 108 -116 108h-13v-219h11
c70 0 118 38 118 106v5z" />
    <glyph glyph-name="C" unicode="C" horiz-adv-x="334" 
d="M221 -5c-109 0 -193 103 -193 344v22c0 242 90 344 200 344c33 0 51 -4 76 -16v-102c-25 15 -45 22 -68 22c-61 0 -108 -65 -108 -247v-24c0 -189 47 -247 109 -247c21 0 44 7 69 22v-98c-25 -14 -51 -20 -85 -20z" />
    <glyph glyph-name="D" unicode="D" horiz-adv-x="413" 
d="M42 0v700h105c148 0 238 -114 238 -339v-22c0 -225 -90 -339 -238 -339h-105zM156 610h-15v-520h15c72 0 129 67 129 249v22c0 182 -58 249 -129 249z" />
    <glyph glyph-name="E" unicode="E" horiz-adv-x="329" 
d="M42 0v700h259v-93h-160v-208h143v-93h-143v-213h163v-93h-262z" />
    <glyph glyph-name="F" unicode="F" horiz-adv-x="309" 
d="M42 0v700h247v-93h-148v-212h131v-94h-131v-301h-99z" />
    <glyph glyph-name="G" unicode="G" horiz-adv-x="401" 
d="M247 -9c-120 0 -219 105 -219 348v22c0 230 97 348 227 348c37 0 66 -8 91 -21v-103c-30 18 -57 29 -88 29c-75 0 -130 -80 -130 -249v-30c0 -192 60 -253 123 -253c9 0 13 1 23 3v212h-74v88h164v-366c-42 -19 -74 -28 -117 -28z" />
    <glyph glyph-name="H" unicode="H" horiz-adv-x="420" 
d="M42 0v700h99v-301h139v301h98v-700h-98v305h-139v-305h-99z" />
    <glyph glyph-name="I" unicode="I" horiz-adv-x="190" 
d="M46 0v700h98v-700h-98z" />
    <glyph glyph-name="J" unicode="J" horiz-adv-x="277" 
d="M86 -6c-27 0 -51 5 -69 10v97c17 -6 37 -11 57 -11c40 0 65 22 65 75v535h99v-541c0 -57 -16 -98 -43 -126c-26 -26 -63 -39 -109 -39z" />
    <glyph glyph-name="K" unicode="K" horiz-adv-x="393" 
d="M42 0v700h99v-329l129 329h108l-130 -302l138 -398h-107l-101 288l-37 -88v-200h-99z" />
    <glyph glyph-name="L" unicode="L" horiz-adv-x="295" 
d="M42 0v700h99v-607h143v-93h-242z" />
    <glyph glyph-name="M" unicode="M" horiz-adv-x="484" 
d="M42 0v700h102l98 -303l98 303h102v-700h-95v478l-104 -309h-2l-104 309v-478h-95z" />
    <glyph glyph-name="N" unicode="N" horiz-adv-x="426" 
d="M42 0v700h94l153 -430v430h95v-700h-88l-159 446v-446h-95z" />
    <glyph glyph-name="O" unicode="O" horiz-adv-x="416" 
d="M208 -9c-106 0 -180 113 -180 344v30c0 231 74 344 180 344s180 -113 180 -344v-30c0 -231 -74 -344 -180 -344zM208 81c47 0 80 67 80 254v30c0 187 -33 254 -80 254s-80 -67 -80 -254v-30c0 -187 33 -254 80 -254z" />
    <glyph glyph-name="P" unicode="P" horiz-adv-x="379" 
d="M42 0v700h102c131 0 219 -76 219 -231v-2c0 -150 -84 -229 -210 -236h-12v-231h-99zM141 322h13c66 2 110 49 110 142v2c0 97 -42 143 -108 143h-15v-287z" />
    <glyph glyph-name="Q" unicode="Q" horiz-adv-x="421" 
d="M408 36l-52 -53l-50 54c-28 -31 -61 -46 -96 -46c-109 0 -182 113 -182 344v30c0 231 74 344 180 344s180 -113 180 -344v-30c0 -101 -16 -181 -42 -238zM214 80c14 0 27 5 37 17l-64 68l49 52l41 -46c7 38 11 91 11 164v30c0 187 -33 254 -80 254s-80 -67 -80 -254v-30
c0 -198 34 -255 86 -255z" />
    <glyph glyph-name="Q.alt" horiz-adv-x="416" 
d="M306 -86l-56 84c-13 -5 -27 -7 -42 -7c-106 0 -180 113 -180 344v30c0 231 74 344 180 344s180 -113 180 -344v-30c0 -132 -24 -225 -65 -281l87 -140h-104zM208 81c47 0 80 67 80 254v30c0 187 -33 254 -80 254s-80 -67 -80 -254v-30c0 -187 33 -254 80 -254z" />
    <glyph glyph-name="R" unicode="R" horiz-adv-x="394" 
d="M42 0v700h114c64 0 118 -18 155 -55c36 -37 57 -90 57 -163v-7c0 -93 -39 -154 -94 -187l106 -288h-106l-94 256c-4 0 -9 -1 -13 -1h-26v-255h-99zM141 344h17c66 0 111 40 111 130v6c0 96 -48 128 -114 128h-14v-264z" />
    <glyph glyph-name="S" unicode="S" horiz-adv-x="327" 
d="M148 -6c-46 0 -86 12 -123 32v102c44 -27 76 -41 112 -41c45 0 76 28 76 79c0 34 -11 67 -76 144c-88 103 -118 149 -118 225v1c0 102 70 170 163 170c44 0 76 -10 105 -25v-102c-38 23 -65 34 -97 34c-40 0 -72 -28 -72 -74c0 -36 13 -62 77 -138
c93 -110 117 -159 117 -234v-1c0 -104 -72 -172 -164 -172z" />
    <glyph glyph-name="T" unicode="T" horiz-adv-x="316" 
d="M109 0v607h-95v93h288v-93h-95v-607h-98z" />
    <glyph glyph-name="U" unicode="U" horiz-adv-x="413" 
d="M207 -9c-98 0 -168 68 -168 206v503h99v-512c0 -72 28 -105 69 -105c40 0 68 33 68 105v512h99v-503c0 -138 -70 -206 -167 -206z" />
    <glyph glyph-name="V" unicode="V" horiz-adv-x="382" 
d="M140 -3l-131 703h101l83 -506l83 506h97l-131 -703h-102z" />
    <glyph glyph-name="W" unicode="W" horiz-adv-x="598" 
d="M122 -3l-111 703h102l64 -484l77 484h91l76 -484l65 484h99l-110 -703h-102l-75 474l-74 -474h-102z" />
    <glyph glyph-name="X" unicode="X" horiz-adv-x="382" 
d="M260 700h102l-112 -337l120 -363h-105l-75 251l-76 -251h-102l119 361l-113 339h105l68 -232z" />
    <glyph glyph-name="Y" unicode="Y" horiz-adv-x="373" 
d="M137 0v284l-135 416h103l83 -286l83 286h100l-135 -416v-284h-99z" />
    <glyph glyph-name="Z" unicode="Z" horiz-adv-x="339" 
d="M25 0v76l182 532h-174v92h282v-75l-182 -533h182v-92h-290z" />
    <glyph glyph-name="a" unicode="a" horiz-adv-x="349" 
d="M125 -9c-63 0 -107 63 -107 159v15c0 113 49 169 125 169c28 0 53 -8 76 -20v42c0 61 -28 94 -82 94c-33 0 -64 -11 -92 -25v91c34 15 73 23 105 23c53 0 90 -14 119 -42c29 -29 45 -74 45 -134v-363h-96v63c-21 -47 -51 -72 -93 -72zM161 71c33 0 58 32 58 77v96
c-15 7 -35 14 -52 14c-36 0 -57 -30 -57 -88v-12c0 -59 20 -87 51 -87z" />
    <glyph glyph-name="a.alt" horiz-adv-x="382" 
d="M149 -9c-67 0 -121 70 -121 256v39c0 184 54 256 121 256c52 0 80 -45 98 -85v76h96v-533h-96v77c-18 -40 -46 -86 -98 -86zM184 81c37 0 65 60 65 169v33c0 109 -28 169 -65 169s-61 -61 -61 -170v-31c0 -110 24 -170 61 -170z" />
    <glyph glyph-name="b" unicode="b" horiz-adv-x="382" 
d="M233 -9c-52 0 -80 44 -99 85v-76h-95v706h95v-250c18 40 47 86 99 86c66 0 121 -70 121 -256v-39c0 -184 -55 -256 -121 -256zM198 81c37 0 61 61 61 170v31c0 110 -24 170 -61 170s-65 -60 -65 -169v-33c0 -109 28 -169 65 -169z" />
    <glyph glyph-name="c" unicode="c" horiz-adv-x="285" 
d="M190 -9c-95 0 -164 86 -164 262v25c0 175 74 262 166 262c32 0 49 -4 71 -15v-98c-20 12 -39 21 -61 21c-42 0 -80 -47 -80 -168v-29c0 -121 38 -168 83 -168c18 0 39 10 58 24v-95c-24 -14 -44 -21 -73 -21z" />
    <glyph glyph-name="d" unicode="d" horiz-adv-x="382" 
d="M149 -9c-67 0 -121 70 -121 256v39c0 184 54 256 121 256c52 0 80 -45 98 -85v249h96v-706h-96v77c-18 -40 -46 -86 -98 -86zM184 81c37 0 65 60 65 169v33c0 109 -28 169 -65 169s-61 -61 -61 -170v-31c0 -110 24 -170 61 -170z" />
    <glyph glyph-name="e" unicode="e" horiz-adv-x="349" 
d="M203 -9c-97 0 -179 89 -179 263v21c0 175 72 266 157 266c88 0 147 -93 147 -266v-52h-209c5 -102 47 -143 96 -143c35 0 58 13 93 37l8 -89c-40 -25 -70 -37 -113 -37zM118 299h120c0 99 -21 157 -57 157c-35 0 -60 -49 -63 -157z" />
    <glyph glyph-name="f" unicode="f" horiz-adv-x="225" 
d="M54 0v454h-39v79h39v45c0 44 11 77 33 98c21 21 53 32 93 32c16 0 29 -2 40 -4v-81c-6 1 -12 2 -19 2c-32 0 -51 -19 -51 -60v-32h68v-79h-68v-454h-96z" />
    <glyph glyph-name="g" unicode="g" horiz-adv-x="382" 
d="M165 -132c-45 0 -78 7 -115 18v89c34 -13 78 -23 105 -23c58 0 92 26 92 91v74c-18 -41 -47 -86 -99 -86c-66 0 -120 71 -120 252v7c0 181 54 252 120 252c52 0 81 -44 99 -85v76h96v-496c0 -56 -15 -96 -44 -125c-30 -30 -76 -44 -134 -44zM184 121c35 0 65 56 65 163v5
c0 106 -30 163 -65 163s-61 -56 -61 -164v-3c0 -109 26 -164 61 -164z" />
    <glyph glyph-name="h" unicode="h" horiz-adv-x="377" 
d="M39 0v706h95v-241c20 42 49 77 99 77c69 0 108 -58 108 -148v-394h-95v374c0 54 -20 83 -53 83c-34 0 -59 -32 -59 -85v-372h-95z" />
    <glyph glyph-name="i" unicode="i" horiz-adv-x="178" 
d="M40 602v104h98v-104h-98zM42 0v533h95v-533h-95z" />
    <glyph glyph-name="j" unicode="j" horiz-adv-x="182" 
d="M44 602v104h98v-104h-98zM22 -133c-19 0 -28 2 -41 5v76c4 -1 11 -1 15 -1c33 0 49 20 49 58v528h95v-539c0 -82 -40 -127 -118 -127z" />
    <glyph glyph-name="k" unicode="k" horiz-adv-x="348" 
d="M39 0v706h95v-408l99 235h103l-100 -215l100 -318h-104l-66 225l-32 -71v-154h-95z" />
    <glyph glyph-name="l" unicode="l" horiz-adv-x="178" 
d="M42 0v706h95v-706h-95z" />
    <glyph glyph-name="m" unicode="m" horiz-adv-x="580" 
d="M39 0v533h95v-67c22 44 51 76 98 76c49 0 76 -31 94 -70c21 33 51 70 102 70c62 0 114 -51 114 -148v-394h-95v374c0 54 -19 83 -52 83s-57 -32 -57 -85v-372h-95v374c0 54 -19 83 -52 83s-57 -32 -57 -85v-372h-95z" />
    <glyph glyph-name="n" unicode="n" horiz-adv-x="377" 
d="M39 0v533h95v-68c20 42 49 77 99 77c69 0 108 -58 108 -148v-394h-95v374c0 54 -20 83 -53 83c-34 0 -59 -32 -59 -85v-372h-95z" />
    <glyph glyph-name="o" unicode="o" horiz-adv-x="373" 
d="M187 -9c-91 0 -161 92 -161 262v25c0 170 70 263 161 263s161 -93 161 -263v-25c0 -170 -70 -262 -161 -262zM187 76c38 0 65 62 65 176v28c0 115 -27 176 -65 176c-39 0 -66 -61 -66 -176v-28c0 -114 27 -176 66 -176z" />
    <glyph glyph-name="p" unicode="p" horiz-adv-x="382" 
d="M39 -130v663h95v-77c18 40 47 86 99 86c66 0 121 -70 121 -256v-39c0 -184 -55 -256 -121 -256c-52 0 -80 44 -99 85v-206h-95zM198 81c37 0 61 61 61 170v31c0 110 -24 170 -61 170s-65 -60 -65 -169v-33c0 -109 28 -169 65 -169z" />
    <glyph glyph-name="q" unicode="q" horiz-adv-x="382" 
d="M247 -130v207c-18 -40 -46 -86 -98 -86c-67 0 -121 70 -121 256v39c0 184 54 256 121 256c52 0 80 -45 98 -85v76h96v-663h-96zM184 81c37 0 65 60 65 169v33c0 109 -28 169 -65 169s-61 -61 -61 -170v-31c0 -110 24 -170 61 -170z" />
    <glyph glyph-name="r" unicode="r" horiz-adv-x="245" 
d="M39 0v533h95v-70c17 46 47 79 97 76v-113h-2c-59 0 -95 -39 -95 -120v-306h-95z" />
    <glyph glyph-name="s" unicode="s" horiz-adv-x="283" 
d="M127 -9c-37 0 -74 10 -108 25v95c39 -21 74 -34 103 -34c33 0 55 20 55 54c0 27 -13 50 -67 102c-61 60 -94 106 -94 169v2c0 84 59 136 142 136c33 0 58 -4 87 -15v-94c-26 13 -54 23 -83 23c-33 0 -54 -19 -54 -48c0 -27 12 -45 70 -101c68 -67 91 -110 91 -170v-2
c0 -87 -63 -142 -142 -142z" />
    <glyph glyph-name="t" unicode="t" horiz-adv-x="238" 
d="M159 -6c-57 0 -105 20 -105 97v363h-38v79h38v140h95v-140h69v-79h-69v-333c0 -31 15 -41 39 -41c10 0 21 2 30 6v-78c-15 -8 -39 -14 -59 -14z" />
    <glyph glyph-name="u" unicode="u" horiz-adv-x="377" 
d="M144 -9c-69 0 -108 58 -108 147v395h95v-374c0 -54 20 -83 53 -83c34 0 59 32 59 85v372h95v-533h-95v68c-20 -42 -49 -77 -99 -77z" />
    <glyph glyph-name="v" unicode="v" horiz-adv-x="358" 
d="M132 -2l-117 535h95l70 -380l70 380h93l-116 -535h-95z" />
    <glyph glyph-name="w" unicode="w" horiz-adv-x="528" 
d="M114 -2l-97 535h97l54 -353l59 353h76l59 -353l55 353h94l-97 -535h-89l-61 343l-60 -343h-90z" />
    <glyph glyph-name="x" unicode="x" horiz-adv-x="350" 
d="M116 533l60 -181l59 181h97l-99 -259l103 -274h-100l-62 195l-62 -195h-98l102 274l-98 259h98z" />
    <glyph glyph-name="y" unicode="y" horiz-adv-x="357" 
d="M177 177l71 356h93l-151 -663h-92l33 145l-115 518h94z" />
    <glyph glyph-name="z" unicode="z" horiz-adv-x="290" 
d="M16 0v66l156 386h-149v81h251v-67l-156 -385h155v-81h-257z" />
    <glyph glyph-name="Aacute" unicode="&#xc1;" horiz-adv-x="402" 
d="M9 0l139 702h106l139 -702h-100l-28 156h-132l-28 -156h-96zM148 245h102l-51 281zM160 742l79 120l85 -42l-93 -78h-71z" />
    <glyph glyph-name="aacute" unicode="&#xe1;" horiz-adv-x="349" 
d="M125 -9c-63 0 -107 63 -107 159v15c0 113 49 169 125 169c28 0 53 -8 76 -20v42c0 61 -28 94 -82 94c-33 0 -64 -11 -92 -25v91c34 15 73 23 105 23c53 0 90 -14 119 -42c29 -29 45 -74 45 -134v-363h-96v63c-21 -47 -51 -72 -93 -72zM161 71c33 0 58 32 58 77v96
c-15 7 -35 14 -52 14c-36 0 -57 -30 -57 -88v-12c0 -59 20 -87 51 -87zM134 578l79 141l79 -42l-93 -99h-65z" />
    <glyph glyph-name="aacute.alt" horiz-adv-x="382" 
d="M160 578l79 141l79 -42l-93 -99h-65zM149 -9c-67 0 -121 70 -121 256v39c0 184 54 256 121 256c52 0 80 -45 98 -85v76h96v-533h-96v77c-18 -40 -46 -86 -98 -86zM184 81c37 0 65 60 65 169v33c0 109 -28 169 -65 169s-61 -61 -61 -170v-31c0 -110 24 -170 61 -170z" />
    <glyph glyph-name="Abreve" unicode="&#x102;" horiz-adv-x="402" 
d="M9 0l139 702h106l139 -702h-100l-28 156h-132l-28 -156h-96zM148 245h102l-51 281zM201 738c-60 0 -106 33 -109 102h60c6 -27 22 -39 49 -39c26 0 43 12 49 39h60c-4 -69 -49 -102 -109 -102z" />
    <glyph glyph-name="abreve" unicode="&#x103;" horiz-adv-x="349" 
d="M125 -9c-63 0 -107 63 -107 159v15c0 113 49 169 125 169c28 0 53 -8 76 -20v42c0 61 -28 94 -82 94c-33 0 -64 -11 -92 -25v91c34 15 73 23 105 23c53 0 90 -14 119 -42c29 -29 45 -74 45 -134v-363h-96v63c-21 -47 -51 -72 -93 -72zM161 71c33 0 58 32 58 77v96
c-15 7 -35 14 -52 14c-36 0 -57 -30 -57 -88v-12c0 -59 20 -87 51 -87zM172 575c-58 0 -105 35 -110 112h59c5 -31 21 -50 51 -50s46 19 51 50h60c-6 -77 -53 -112 -111 -112z" />
    <glyph glyph-name="abreve.alt" horiz-adv-x="382" 
d="M149 -9c-67 0 -121 70 -121 256v39c0 184 54 256 121 256c52 0 80 -45 98 -85v76h96v-533h-96v77c-18 -40 -46 -86 -98 -86zM184 81c37 0 65 60 65 169v33c0 109 -28 169 -65 169s-61 -61 -61 -170v-31c0 -110 24 -170 61 -170zM198 575c-58 0 -105 35 -110 112h59
c5 -31 21 -50 51 -50s46 19 51 50h60c-6 -77 -53 -112 -111 -112z" />
    <glyph glyph-name="Acircumflex" unicode="&#xc2;" horiz-adv-x="402" 
d="M9 0l139 702h106l139 -702h-100l-28 156h-132l-28 -156h-96zM148 245h102l-51 281zM88 741l73 112h80l73 -112h-70l-44 51l-44 -51h-68z" />
    <glyph glyph-name="acircumflex" unicode="&#xe2;" horiz-adv-x="349" 
d="M125 -9c-63 0 -107 63 -107 159v15c0 113 49 169 125 169c28 0 53 -8 76 -20v42c0 61 -28 94 -82 94c-33 0 -64 -11 -92 -25v91c34 15 73 23 105 23c53 0 90 -14 119 -42c29 -29 45 -74 45 -134v-363h-96v63c-21 -47 -51 -72 -93 -72zM161 71c33 0 58 32 58 77v96
c-15 7 -35 14 -52 14c-36 0 -57 -30 -57 -88v-12c0 -59 20 -87 51 -87zM61 580l75 134h72l75 -134h-65l-47 66l-47 -66h-63z" />
    <glyph glyph-name="acircumflex.alt" horiz-adv-x="382" 
d="M87 580l75 134h72l75 -134h-65l-47 66l-47 -66h-63zM149 -9c-67 0 -121 70 -121 256v39c0 184 54 256 121 256c52 0 80 -45 98 -85v76h96v-533h-96v77c-18 -40 -46 -86 -98 -86zM184 81c37 0 65 60 65 169v33c0 109 -28 169 -65 169s-61 -61 -61 -170v-31
c0 -110 24 -170 61 -170z" />
    <glyph glyph-name="Adieresis" unicode="&#xc4;" horiz-adv-x="402" 
d="M9 0l139 702h106l139 -702h-100l-28 156h-132l-28 -156h-96zM148 245h102l-51 281zM224 747v94h90v-94h-90zM88 747v94h90v-94h-90z" />
    <glyph glyph-name="adieresis" unicode="&#xe4;" horiz-adv-x="349" 
d="M125 -9c-63 0 -107 63 -107 159v15c0 113 49 169 125 169c28 0 53 -8 76 -20v42c0 61 -28 94 -82 94c-33 0 -64 -11 -92 -25v91c34 15 73 23 105 23c53 0 90 -14 119 -42c29 -29 45 -74 45 -134v-363h-96v63c-21 -47 -51 -72 -93 -72zM161 71c33 0 58 32 58 77v96
c-15 7 -35 14 -52 14c-36 0 -57 -30 -57 -88v-12c0 -59 20 -87 51 -87zM193 583v96h88v-96h-88zM63 583v96h88v-96h-88z" />
    <glyph glyph-name="adieresis.alt" horiz-adv-x="382" 
d="M219 583v96h88v-96h-88zM89 583v96h88v-96h-88zM149 -9c-67 0 -121 70 -121 256v39c0 184 54 256 121 256c52 0 80 -45 98 -85v76h96v-533h-96v77c-18 -40 -46 -86 -98 -86zM184 81c37 0 65 60 65 169v33c0 109 -28 169 -65 169s-61 -61 -61 -170v-31
c0 -110 24 -170 61 -170z" />
    <glyph glyph-name="AE" unicode="&#xc6;" horiz-adv-x="542" 
d="M1 0l188 700h325v-93h-160v-208h143v-93h-143v-213h163v-93h-262v156h-120l-39 -156h-95zM157 245h98v355h-9z" />
    <glyph glyph-name="ae" unicode="&#xe6;" horiz-adv-x="541" 
d="M136 -9c-73 0 -118 63 -118 159v15c0 113 49 169 125 169c28 0 53 -8 76 -20v42c0 61 -29 94 -82 94c-33 0 -62 -11 -92 -25v91c34 15 65 23 108 23c59 0 98 -25 120 -68c23 45 58 70 99 70c89 0 148 -93 148 -266v-52h-210c6 -102 48 -143 96 -143c35 0 59 13 93 37
l8 -89c-40 -25 -69 -37 -113 -37c-61 0 -112 36 -141 106c-18 -59 -59 -106 -117 -106zM310 299h120c0 99 -21 157 -58 157c-35 0 -60 -49 -62 -157zM165 71c30 0 58 35 71 88c-5 26 -8 59 -8 83c-20 10 -39 16 -61 16c-36 0 -57 -30 -57 -88v-12c0 -57 20 -87 55 -87z" />
    <glyph glyph-name="AEacute" unicode="&#x1fc;" horiz-adv-x="542" 
d="M263 737l79 120l85 -42l-93 -78h-71zM1 0l188 700h325v-93h-160v-208h143v-93h-143v-213h163v-93h-262v156h-120l-39 -156h-95zM157 245h98v355h-9z" />
    <glyph glyph-name="aeacute" unicode="&#x1fd;" horiz-adv-x="541" 
d="M230 575l79 141l79 -42l-93 -99h-65zM136 -9c-73 0 -118 63 -118 159v15c0 113 49 169 125 169c28 0 53 -8 76 -20v42c0 61 -29 94 -82 94c-33 0 -62 -11 -92 -25v91c34 15 65 23 108 23c59 0 98 -25 120 -68c23 45 58 70 99 70c89 0 148 -93 148 -266v-52h-210
c6 -102 48 -143 96 -143c35 0 59 13 93 37l8 -89c-40 -25 -69 -37 -113 -37c-61 0 -112 36 -141 106c-18 -59 -59 -106 -117 -106zM310 299h120c0 99 -21 157 -58 157c-35 0 -60 -49 -62 -157zM165 71c30 0 58 35 71 88c-5 26 -8 59 -8 83c-20 10 -39 16 -61 16
c-36 0 -57 -30 -57 -88v-12c0 -57 20 -87 55 -87z" />
    <glyph glyph-name="Agrave" unicode="&#xc0;" horiz-adv-x="402" 
d="M9 0l139 702h106l139 -702h-100l-28 156h-132l-28 -156h-96zM148 245h102l-51 281zM243 742h-71l-93 78l85 42z" />
    <glyph glyph-name="agrave" unicode="&#xe0;" horiz-adv-x="349" 
d="M125 -9c-63 0 -107 63 -107 159v15c0 113 49 169 125 169c28 0 53 -8 76 -20v42c0 61 -28 94 -82 94c-33 0 -64 -11 -92 -25v91c34 15 73 23 105 23c53 0 90 -14 119 -42c29 -29 45 -74 45 -134v-363h-96v63c-21 -47 -51 -72 -93 -72zM161 71c33 0 58 32 58 77v96
c-15 7 -35 14 -52 14c-36 0 -57 -30 -57 -88v-12c0 -59 20 -87 51 -87zM146 578l-94 99l79 42l80 -141h-65z" />
    <glyph glyph-name="agrave.alt" horiz-adv-x="382" 
d="M149 -9c-67 0 -121 70 -121 256v39c0 184 54 256 121 256c52 0 80 -45 98 -85v76h96v-533h-96v77c-18 -40 -46 -86 -98 -86zM184 81c37 0 65 60 65 169v33c0 109 -28 169 -65 169s-61 -61 -61 -170v-31c0 -110 24 -170 61 -170zM172 578l-94 99l79 42l80 -141h-65z" />
    <glyph glyph-name="Amacron" unicode="&#x100;" horiz-adv-x="402" 
d="M9 0l139 702h106l139 -702h-100l-28 156h-132l-28 -156h-96zM148 245h102l-51 281zM88 747v68h227v-68h-227z" />
    <glyph glyph-name="amacron" unicode="&#x101;" horiz-adv-x="349" 
d="M125 -9c-63 0 -107 63 -107 159v15c0 113 49 169 125 169c28 0 53 -8 76 -20v42c0 61 -28 94 -82 94c-33 0 -64 -11 -92 -25v91c34 15 73 23 105 23c53 0 90 -14 119 -42c29 -29 45 -74 45 -134v-363h-96v63c-21 -47 -51 -72 -93 -72zM161 71c33 0 58 32 58 77v96
c-15 7 -35 14 -52 14c-36 0 -57 -30 -57 -88v-12c0 -59 20 -87 51 -87zM64 584v66h216v-66h-216z" />
    <glyph glyph-name="amacron.alt" horiz-adv-x="382" 
d="M149 -9c-67 0 -121 70 -121 256v39c0 184 54 256 121 256c52 0 80 -45 98 -85v76h96v-533h-96v77c-18 -40 -46 -86 -98 -86zM184 81c37 0 65 60 65 169v33c0 109 -28 169 -65 169s-61 -61 -61 -170v-31c0 -110 24 -170 61 -170zM90 584v66h216v-66h-216z" />
    <glyph glyph-name="Aogonek" unicode="&#x104;" horiz-adv-x="402" 
d="M398 -81v-58c-14 -2 -25 -3 -34 -3c-57 0 -87 23 -87 64c0 30 14 53 37 78h-21l-28 156h-132l-28 -156h-96l139 702h106l139 -702h-12c-17 -23 -24 -38 -24 -54c0 -22 14 -29 41 -27zM148 245h102l-51 281z" />
    <glyph glyph-name="aogonek" unicode="&#x105;" horiz-adv-x="349" 
d="M318 -81v-58c-14 -2 -25 -3 -34 -3c-57 0 -87 23 -87 64c0 30 14 53 37 78h-16v63c-21 -47 -51 -72 -93 -72c-63 0 -107 63 -107 159v15c0 113 49 169 125 169c28 0 53 -8 76 -20v42c0 61 -28 94 -82 94c-33 0 -64 -11 -92 -25v91c34 15 73 23 105 23
c53 0 90 -14 119 -42c29 -29 45 -74 45 -134v-363h-13c-17 -23 -24 -38 -24 -54c0 -22 14 -29 41 -27zM161 71c33 0 58 32 58 77v96c-15 7 -35 14 -52 14c-36 0 -57 -30 -57 -88v-12c0 -59 20 -87 51 -87z" />
    <glyph glyph-name="aogonek.alt" horiz-adv-x="382" 
d="M347 -81v-58c-14 -2 -25 -3 -34 -3c-57 0 -87 23 -87 64c0 30 14 53 37 78h-16v77c-18 -40 -46 -86 -98 -86c-67 0 -121 70 -121 256v39c0 184 54 256 121 256c52 0 80 -45 98 -85v76h96v-533h-13c-17 -23 -24 -38 -24 -54c0 -22 14 -29 41 -27zM184 81
c37 0 65 60 65 169v33c0 109 -28 169 -65 169s-61 -61 -61 -170v-31c0 -110 24 -170 61 -170z" />
    <glyph glyph-name="Aring" unicode="&#xc5;" horiz-adv-x="402" 
d="M9 0l133 673c-15 14 -25 35 -25 59c0 46 38 81 85 81c46 0 84 -35 84 -81c0 -25 -10 -45 -27 -60l134 -672h-100l-28 156h-132l-28 -156h-96zM148 245h102l-51 281zM201 689c24 0 42 18 42 43c0 24 -18 42 -42 42s-41 -18 -41 -42c0 -25 17 -43 41 -43z" />
    <glyph glyph-name="aring" unicode="&#xe5;" horiz-adv-x="349" 
d="M125 -9c-63 0 -107 63 -107 159v15c0 113 49 169 125 169c28 0 53 -8 76 -20v42c0 61 -28 94 -82 94c-33 0 -64 -11 -92 -25v91c34 15 73 23 105 23c53 0 90 -14 119 -42c29 -29 45 -74 45 -134v-363h-96v63c-21 -47 -51 -72 -93 -72zM161 71c33 0 58 32 58 77v96
c-15 7 -35 14 -52 14c-36 0 -57 -30 -57 -88v-12c0 -59 20 -87 51 -87zM172 574c-47 0 -85 37 -85 87s38 87 85 87s85 -37 85 -87c0 -49 -38 -87 -85 -87zM172 614c24 0 42 20 42 47s-18 48 -42 48s-42 -21 -42 -48s18 -47 42 -47z" />
    <glyph glyph-name="aring.alt" horiz-adv-x="382" 
d="M198 574c-47 0 -85 37 -85 87s38 87 85 87s85 -37 85 -87c0 -49 -38 -87 -85 -87zM198 614c24 0 42 20 42 47s-18 48 -42 48s-42 -21 -42 -48s18 -47 42 -47zM149 -9c-67 0 -121 70 -121 256v39c0 184 54 256 121 256c52 0 80 -45 98 -85v76h96v-533h-96v77
c-18 -40 -46 -86 -98 -86zM184 81c37 0 65 60 65 169v33c0 109 -28 169 -65 169s-61 -61 -61 -170v-31c0 -110 24 -170 61 -170z" />
    <glyph glyph-name="aring.alt2" horiz-adv-x="349" 
d="M126 -9c-63 0 -108 63 -108 159v15c0 113 49 169 125 169c28 0 53 -8 76 -20v42c0 61 -29 94 -82 94c-33 0 -62 -11 -92 -25v91c20 8 39 15 60 19c-11 13 -17 31 -17 52c0 49 38 87 85 87s84 -37 84 -87c0 -26 -12 -48 -28 -63c14 -6 28 -15 40 -27
c29 -29 45 -74 45 -134v-363h-96v63c-21 -47 -50 -72 -92 -72zM161 71c33 0 58 32 58 77v96c-15 7 -35 14 -52 14c-36 0 -57 -30 -57 -88v-12c0 -59 20 -87 51 -87zM130 587c0 -27 18 -48 42 -48c25 0 43 21 43 48s-18 47 -43 47c-24 0 -42 -20 -42 -47z" />
    <glyph glyph-name="Aringacute" unicode="&#x1fa;" horiz-adv-x="402" 
d="M9 0l133 673c-15 14 -25 35 -25 59c0 46 38 81 85 81c46 0 84 -35 84 -81c0 -25 -10 -45 -27 -60l134 -672h-100l-28 156h-132l-28 -156h-96zM148 245h102l-51 281zM165 830l75 100l84 -41l-84 -59h-75zM201 689c24 0 42 18 42 43c0 24 -18 42 -42 42s-41 -18 -41 -42
c0 -25 17 -43 41 -43z" />
    <glyph glyph-name="aringacute" unicode="&#x1fb;" horiz-adv-x="349" 
d="M136 771l73 108l78 -37l-83 -71h-68zM125 -9c-63 0 -107 63 -107 159v15c0 113 49 169 125 169c28 0 53 -8 76 -20v42c0 61 -28 94 -82 94c-33 0 -64 -11 -92 -25v91c34 15 73 23 105 23c53 0 90 -14 119 -42c29 -29 45 -74 45 -134v-363h-96v63c-21 -47 -51 -72 -93 -72
zM161 71c33 0 58 32 58 77v96c-15 7 -35 14 -52 14c-36 0 -57 -30 -57 -88v-12c0 -59 20 -87 51 -87zM173 574c-47 0 -85 37 -85 87s38 87 85 87s85 -37 85 -87c0 -49 -38 -87 -85 -87zM173 614c24 0 42 20 42 47s-18 48 -42 48s-42 -21 -42 -48s18 -47 42 -47z" />
    <glyph glyph-name="aringacute.alt" horiz-adv-x="382" 
d="M161 771l74 108l78 -37l-83 -71h-69zM198 574c-47 0 -85 37 -85 87s38 87 85 87s85 -37 85 -87c0 -49 -38 -87 -85 -87zM198 614c24 0 42 20 42 47s-18 48 -42 48s-42 -21 -42 -48s18 -47 42 -47zM149 -9c-67 0 -121 70 -121 256v39c0 184 54 256 121 256
c52 0 80 -45 98 -85v76h96v-533h-96v77c-18 -40 -46 -86 -98 -86zM184 81c37 0 65 60 65 169v33c0 109 -28 169 -65 169s-61 -61 -61 -170v-31c0 -110 24 -170 61 -170z" />
    <glyph glyph-name="aringacute.alt2" horiz-adv-x="349" 
d="M136 695l73 108l78 -38l-83 -70h-68zM126 -9c-63 0 -108 63 -108 159v15c0 113 49 169 125 169c28 0 53 -8 76 -20v42c0 61 -29 94 -82 94c-33 0 -62 -11 -92 -25v91c20 8 39 15 60 19c-11 13 -17 31 -17 52c0 49 38 87 85 87s84 -37 84 -87c0 -26 -12 -48 -28 -63
c14 -6 28 -15 40 -27c29 -29 45 -74 45 -134v-363h-96v63c-21 -47 -50 -72 -92 -72zM161 71c33 0 58 32 58 77v96c-15 7 -35 14 -52 14c-36 0 -57 -30 -57 -88v-12c0 -59 20 -87 51 -87zM130 587c0 -27 18 -48 42 -48c25 0 43 21 43 48s-18 47 -43 47c-24 0 -42 -20 -42 -47
z" />
    <glyph glyph-name="Atilde" unicode="&#xc3;" horiz-adv-x="402" 
d="M9 0l139 702h106l139 -702h-100l-28 156h-132l-28 -156h-96zM148 245h102l-51 281zM262 741c-21 0 -40 10 -59 20c-18 10 -32 17 -41 17c-13 0 -19 -11 -27 -38l-58 14c13 68 33 96 69 96c22 0 42 -10 62 -21c17 -9 29 -15 38 -15c13 0 19 10 27 38l58 -15
c-13 -67 -33 -96 -69 -96z" />
    <glyph glyph-name="atilde" unicode="&#xe3;" horiz-adv-x="349" 
d="M125 -9c-63 0 -107 63 -107 159v15c0 113 49 169 125 169c28 0 53 -8 76 -20v42c0 61 -28 94 -82 94c-33 0 -64 -11 -92 -25v91c34 15 73 23 105 23c53 0 90 -14 119 -42c29 -29 45 -74 45 -134v-363h-96v63c-21 -47 -51 -72 -93 -72zM161 71c33 0 58 32 58 77v96
c-15 7 -35 14 -52 14c-36 0 -57 -30 -57 -88v-12c0 -59 20 -87 51 -87zM232 578c-20 0 -39 11 -59 22c-17 11 -30 17 -39 17c-14 0 -20 -11 -28 -40l-55 13c13 70 32 97 67 97c20 0 39 -10 59 -22c17 -11 30 -17 39 -17c15 0 20 11 28 41l55 -14c-13 -69 -32 -97 -67 -97z
" />
    <glyph glyph-name="atilde.alt" horiz-adv-x="382" 
d="M149 -9c-67 0 -121 70 -121 256v39c0 184 54 256 121 256c52 0 80 -45 98 -85v76h96v-533h-96v77c-18 -40 -46 -86 -98 -86zM184 81c37 0 65 60 65 169v33c0 109 -28 169 -65 169s-61 -61 -61 -170v-31c0 -110 24 -170 61 -170zM258 578c-20 0 -39 11 -59 22
c-17 11 -30 17 -39 17c-14 0 -20 -11 -28 -40l-55 13c13 70 32 97 67 97c20 0 39 -10 59 -22c17 -11 30 -17 39 -17c15 0 20 11 28 41l55 -14c-13 -69 -32 -97 -67 -97z" />
    <glyph glyph-name="Cacute" unicode="&#x106;" horiz-adv-x="334" 
d="M221 -5c-109 0 -193 103 -193 344v22c0 242 90 344 200 344c33 0 51 -4 76 -16v-102c-25 15 -45 22 -68 22c-61 0 -108 -65 -108 -247v-24c0 -189 47 -247 109 -247c21 0 44 7 69 22v-98c-25 -14 -51 -20 -85 -20zM163 742l79 120l85 -42l-93 -78h-71z" />
    <glyph glyph-name="cacute" unicode="&#x107;" horiz-adv-x="285" 
d="M137 578l79 141l79 -42l-93 -99h-65zM190 -9c-95 0 -164 86 -164 262v25c0 175 74 262 166 262c32 0 49 -4 71 -15v-98c-20 12 -39 21 -61 21c-42 0 -80 -47 -80 -168v-29c0 -121 38 -168 83 -168c18 0 39 10 58 24v-95c-24 -14 -44 -21 -73 -21z" />
    <glyph glyph-name="Ccaron" unicode="&#x10c;" horiz-adv-x="334" 
d="M221 -5c-109 0 -193 103 -193 344v22c0 242 90 344 200 344c33 0 51 -4 76 -16v-102c-25 15 -45 22 -68 22c-61 0 -108 -65 -108 -247v-24c0 -189 47 -247 109 -247c21 0 44 7 69 22v-98c-25 -14 -51 -20 -85 -20zM317 855l-73 -112h-80l-73 112h70l44 -51l44 51h68z" />
    <glyph glyph-name="ccaron" unicode="&#x10d;" horiz-adv-x="285" 
d="M286 714l-75 -134h-72l-75 134h65l47 -66l47 66h63zM190 -9c-95 0 -164 86 -164 262v25c0 175 74 262 166 262c32 0 49 -4 71 -15v-98c-20 12 -39 21 -61 21c-42 0 -80 -47 -80 -168v-29c0 -121 38 -168 83 -168c18 0 39 10 58 24v-95c-24 -14 -44 -21 -73 -21z" />
    <glyph glyph-name="Ccedilla" unicode="&#xc7;" horiz-adv-x="334" 
d="M196 -122l-84 32l60 92c-84 28 -144 133 -144 337v22c0 242 90 344 200 344c33 0 51 -4 76 -16v-102c-25 15 -45 22 -68 22c-61 0 -108 -65 -108 -247v-24c0 -189 47 -247 109 -247c21 0 44 7 69 22v-98c-22 -12 -44 -18 -71 -20z" />
    <glyph glyph-name="ccedilla" unicode="&#xe7;" horiz-adv-x="285" 
d="M164 -122l-84 32l58 90c-67 27 -112 110 -112 253v25c0 175 74 262 166 262c32 0 49 -4 71 -15v-98c-20 12 -39 21 -61 21c-42 0 -80 -47 -80 -168v-29c0 -121 38 -168 83 -168c18 0 39 10 58 24v-95c-21 -12 -38 -18 -61 -20z" />
    <glyph glyph-name="Cdotaccent" unicode="&#x10a;" horiz-adv-x="334" 
d="M158 747v94h92v-94h-92zM221 -5c-109 0 -193 103 -193 344v22c0 242 90 344 200 344c33 0 51 -4 76 -16v-102c-25 15 -45 22 -68 22c-61 0 -108 -65 -108 -247v-24c0 -189 47 -247 109 -247c21 0 44 7 69 22v-98c-25 -14 -51 -20 -85 -20z" />
    <glyph glyph-name="cdotaccent" unicode="&#x10b;" horiz-adv-x="285" 
d="M190 -9c-95 0 -164 86 -164 262v25c0 175 74 262 166 262c32 0 49 -4 71 -15v-98c-20 12 -39 21 -61 21c-42 0 -80 -47 -80 -168v-29c0 -121 38 -168 83 -168c18 0 39 10 58 24v-95c-24 -14 -44 -21 -73 -21zM130 583v96h90v-96h-90z" />
    <glyph glyph-name="Dcaron" unicode="&#x10e;" horiz-adv-x="413" 
d="M42 0v700h105c148 0 238 -114 238 -339v-22c0 -225 -90 -339 -238 -339h-105zM156 610h-15v-520h15c72 0 129 67 129 249v22c0 182 -58 249 -129 249zM313 850l-73 -112h-80l-73 112h70l44 -51l44 51h68z" />
    <glyph glyph-name="dcaron" unicode="&#x10f;" horiz-adv-x="382" 
d="M368 560l9 146h67v-2l-34 -144h-42zM149 -9c-67 0 -121 70 -121 256v39c0 184 54 256 121 256c52 0 80 -45 98 -85v249h96v-706h-96v77c-18 -40 -46 -86 -98 -86zM184 81c37 0 65 60 65 169v33c0 109 -28 169 -65 169s-61 -61 -61 -170v-31c0 -110 24 -170 61 -170z" />
    <glyph glyph-name="Dcroat" unicode="&#x110;" horiz-adv-x="421" 
d="M49 0v308h-41v88h41v304h105c148 0 239 -114 239 -339v-22c0 -225 -91 -339 -239 -339h-105zM212 308h-64v-218h16c72 0 129 67 129 249v22c0 182 -58 249 -130 249h-15v-214h64v-88z" />
    <glyph glyph-name="dcroat" unicode="&#x111;" horiz-adv-x="382" 
d="M160 585v67h87v54h96v-54h37v-68h-37v-584h-96v77c-18 -40 -46 -86 -98 -86c-67 0 -121 70 -121 256v39c0 184 54 256 121 256c52 0 80 -45 98 -85v128h-87zM184 81c37 0 65 60 65 169v33c0 109 -28 169 -65 169s-61 -61 -61 -170v-31c0 -110 24 -170 61 -170z" />
    <glyph glyph-name="Eacute" unicode="&#xc9;" horiz-adv-x="329" 
d="M132 737l79 120l85 -42l-93 -78h-71zM42 0v700h259v-93h-160v-208h143v-93h-143v-213h163v-93h-262z" />
    <glyph glyph-name="eacute" unicode="&#xe9;" horiz-adv-x="349" 
d="M142 578l79 141l79 -42l-93 -99h-65zM203 -9c-97 0 -179 89 -179 263v21c0 175 72 266 157 266c88 0 147 -93 147 -266v-52h-209c5 -102 47 -143 96 -143c35 0 58 13 93 37l8 -89c-40 -25 -70 -37 -113 -37zM118 299h120c0 99 -21 157 -57 157c-35 0 -60 -49 -63 -157z
" />
    <glyph glyph-name="Ebreve" unicode="&#x114;" horiz-adv-x="329" 
d="M173 733c-60 0 -106 33 -109 102h60c6 -27 22 -39 49 -39c26 0 43 12 49 39h60c-4 -69 -49 -102 -109 -102zM42 0v700h259v-93h-160v-208h143v-93h-143v-213h163v-93h-262z" />
    <glyph glyph-name="ebreve" unicode="&#x115;" horiz-adv-x="349" 
d="M203 -9c-97 0 -179 89 -179 263v21c0 175 72 266 157 266c88 0 147 -93 147 -266v-52h-209c5 -102 47 -143 96 -143c35 0 58 13 93 37l8 -89c-40 -25 -70 -37 -113 -37zM118 299h120c0 99 -21 157 -57 157c-35 0 -60 -49 -63 -157zM180 575c-58 0 -105 35 -110 112h59
c5 -31 21 -50 51 -50s46 19 51 50h60c-6 -77 -53 -112 -111 -112z" />
    <glyph glyph-name="Ecaron" unicode="&#x11a;" horiz-adv-x="329" 
d="M286 850l-73 -112h-80l-73 112h70l44 -51l44 51h68zM42 0v700h259v-93h-160v-208h143v-93h-143v-213h163v-93h-262z" />
    <glyph glyph-name="ecaron" unicode="&#x11b;" horiz-adv-x="349" 
d="M291 714l-75 -134h-72l-75 134h65l47 -66l47 66h63zM203 -9c-97 0 -179 89 -179 263v21c0 175 72 266 157 266c88 0 147 -93 147 -266v-52h-209c5 -102 47 -143 96 -143c35 0 58 13 93 37l8 -89c-40 -25 -70 -37 -113 -37zM118 299h120c0 99 -21 157 -57 157
c-35 0 -60 -49 -63 -157z" />
    <glyph glyph-name="Ecircumflex" unicode="&#xca;" horiz-adv-x="329" 
d="M42 0v700h259v-93h-160v-208h143v-93h-143v-213h163v-93h-262zM60 738l73 112h80l73 -112h-70l-44 51l-44 -51h-68z" />
    <glyph glyph-name="ecircumflex" unicode="&#xea;" horiz-adv-x="349" 
d="M69 580l75 134h72l75 -134h-65l-47 66l-47 -66h-63zM203 -9c-97 0 -179 89 -179 263v21c0 175 72 266 157 266c88 0 147 -93 147 -266v-52h-209c5 -102 47 -143 96 -143c35 0 58 13 93 37l8 -89c-40 -25 -70 -37 -113 -37zM118 299h120c0 99 -21 157 -57 157
c-35 0 -60 -49 -63 -157z" />
    <glyph glyph-name="Edieresis" unicode="&#xcb;" horiz-adv-x="329" 
d="M196 742v94h90v-94h-90zM60 742v94h90v-94h-90zM42 0v700h259v-93h-160v-208h143v-93h-143v-213h163v-93h-262z" />
    <glyph glyph-name="edieresis" unicode="&#xeb;" horiz-adv-x="349" 
d="M201 583v96h88v-96h-88zM71 583v96h88v-96h-88zM203 -9c-97 0 -179 89 -179 263v21c0 175 72 266 157 266c88 0 147 -93 147 -266v-52h-209c5 -102 47 -143 96 -143c35 0 58 13 93 37l8 -89c-40 -25 -70 -37 -113 -37zM118 299h120c0 99 -21 157 -57 157
c-35 0 -60 -49 -63 -157z" />
    <glyph glyph-name="Edotaccent" unicode="&#x116;" horiz-adv-x="329" 
d="M127 742v94h92v-94h-92zM42 0v700h259v-93h-160v-208h143v-93h-143v-213h163v-93h-262z" />
    <glyph glyph-name="edotaccent" unicode="&#x117;" horiz-adv-x="349" 
d="M203 -9c-97 0 -179 89 -179 263v21c0 175 72 266 157 266c88 0 147 -93 147 -266v-52h-209c5 -102 47 -143 96 -143c35 0 58 13 93 37l8 -89c-40 -25 -70 -37 -113 -37zM118 299h120c0 99 -21 157 -57 157c-35 0 -60 -49 -63 -157zM135 583v96h90v-96h-90z" />
    <glyph glyph-name="Egrave" unicode="&#xc8;" horiz-adv-x="329" 
d="M215 737h-71l-93 78l85 42zM42 0v700h259v-93h-160v-208h143v-93h-143v-213h163v-93h-262z" />
    <glyph glyph-name="egrave" unicode="&#xe8;" horiz-adv-x="349" 
d="M203 -9c-97 0 -179 89 -179 263v21c0 175 72 266 157 266c88 0 147 -93 147 -266v-52h-209c5 -102 47 -143 96 -143c35 0 58 13 93 37l8 -89c-40 -25 -70 -37 -113 -37zM118 299h120c0 99 -21 157 -57 157c-35 0 -60 -49 -63 -157zM153 578l-94 99l79 42l80 -141h-65z
" />
    <glyph glyph-name="Emacron" unicode="&#x112;" horiz-adv-x="329" 
d="M60 742v68h227v-68h-227zM42 0v700h259v-93h-160v-208h143v-93h-143v-213h163v-93h-262z" />
    <glyph glyph-name="emacron" unicode="&#x113;" horiz-adv-x="349" 
d="M203 -9c-97 0 -179 89 -179 263v21c0 175 72 266 157 266c88 0 147 -93 147 -266v-52h-209c5 -102 47 -143 96 -143c35 0 58 13 93 37l8 -89c-40 -25 -70 -37 -113 -37zM118 299h120c0 99 -21 157 -57 157c-35 0 -60 -49 -63 -157zM72 584v66h216v-66h-216z" />
    <glyph glyph-name="Eogonek" unicode="&#x118;" horiz-adv-x="329" 
d="M42 0v700h259v-93h-160v-208h143v-93h-143v-213h163v-93h-15c-17 -23 -24 -38 -24 -54c0 -22 14 -29 41 -27v-58c-14 -2 -25 -3 -34 -3c-57 0 -87 23 -87 64c0 30 14 53 37 78h-180z" />
    <glyph glyph-name="eogonek" unicode="&#x119;" horiz-adv-x="349" 
d="M308 117l7 -85c-39 -44 -49 -68 -49 -86c0 -22 14 -29 41 -27v-58c-14 -2 -25 -3 -35 -3c-57 0 -86 23 -86 64c0 27 11 49 31 72c-4 -1 -9 -2 -14 -2c-97 0 -179 88 -179 262v21c0 175 72 266 157 266c88 0 147 -93 147 -266v-52h-209c5 -102 47 -143 96 -143
c35 0 58 13 93 37zM118 299h120c0 99 -21 157 -57 157c-35 0 -60 -49 -63 -157z" />
    <glyph glyph-name="Eth" unicode="&#xd0;" horiz-adv-x="421" 
d="M49 0v308h-41v88h41v304h105c148 0 239 -114 239 -339v-22c0 -225 -91 -339 -239 -339h-105zM212 308h-64v-218h16c72 0 129 67 129 249v22c0 182 -58 249 -130 249h-15v-214h64v-88z" />
    <glyph glyph-name="eth" unicode="&#xf0;" horiz-adv-x="373" 
d="M315 648l-54 -23c53 -93 85 -205 85 -328v-24c0 -195 -72 -282 -163 -282c-89 0 -157 96 -157 261v29c0 163 68 254 132 254c27 0 46 -13 69 -38c-11 32 -26 63 -44 94l-70 -30l-25 59l59 26c-14 20 -30 40 -47 60h106l19 -26l64 28zM185 75c39 0 65 63 65 178v27
c0 119 -29 178 -66 178c-35 0 -63 -63 -63 -178v-27c0 -114 26 -178 64 -178z" />
    <glyph glyph-name="Gbreve" unicode="&#x11e;" horiz-adv-x="401" 
d="M231 738c-60 0 -106 33 -109 102h60c6 -27 22 -39 49 -39c26 0 43 12 49 39h60c-4 -69 -49 -102 -109 -102zM247 -9c-120 0 -219 105 -219 348v22c0 230 97 348 227 348c37 0 66 -8 91 -21v-103c-30 18 -57 29 -88 29c-75 0 -130 -80 -130 -249v-30
c0 -192 60 -253 123 -253c9 0 13 1 23 3v212h-74v88h164v-366c-42 -19 -74 -28 -117 -28z" />
    <glyph glyph-name="gbreve" unicode="&#x11f;" horiz-adv-x="382" 
d="M165 -132c-45 0 -78 7 -115 18v89c34 -13 78 -23 105 -23c58 0 92 26 92 91v74c-18 -41 -47 -86 -99 -86c-66 0 -120 71 -120 252v7c0 181 54 252 120 252c52 0 81 -44 99 -85v76h96v-496c0 -56 -15 -96 -44 -125c-30 -30 -76 -44 -134 -44zM184 121c35 0 65 56 65 163v5
c0 106 -30 163 -65 163s-61 -56 -61 -164v-3c0 -109 26 -164 61 -164zM198 575c-58 0 -105 35 -110 112h59c5 -31 21 -50 51 -50s46 19 51 50h60c-6 -77 -53 -112 -111 -112z" />
    <glyph glyph-name="Gcommaaccent" unicode="&#x122;" horiz-adv-x="401" 
d="M186 -218l-7 33c37 8 48 21 46 53h-40v80h90v-72c0 -61 -31 -85 -89 -94zM247 -9c-120 0 -219 105 -219 348v22c0 230 97 348 227 348c37 0 66 -8 91 -21v-103c-30 18 -57 29 -88 29c-75 0 -130 -80 -130 -249v-30c0 -192 60 -253 123 -253c9 0 13 1 23 3v212h-74v88h164
v-366c-42 -19 -74 -28 -117 -28z" />
    <glyph glyph-name="gcommaaccent" unicode="&#x123;" horiz-adv-x="382" 
d="M240 754l7 -33c-37 -8 -48 -21 -46 -53h40v-80h-90v72c0 61 31 85 89 94zM165 -132c-45 0 -78 7 -115 18v89c34 -13 78 -23 105 -23c58 0 92 26 92 91v74c-18 -41 -47 -86 -99 -86c-66 0 -120 71 -120 252v7c0 181 54 252 120 252c52 0 81 -44 99 -85v76h96v-496
c0 -56 -15 -96 -44 -125c-30 -30 -76 -44 -134 -44zM184 121c35 0 65 56 65 163v5c0 106 -30 163 -65 163s-61 -56 -61 -164v-3c0 -109 26 -164 61 -164z" />
    <glyph glyph-name="Gdotaccent" unicode="&#x120;" horiz-adv-x="401" 
d="M185 747v94h92v-94h-92zM247 -9c-120 0 -219 105 -219 348v22c0 230 97 348 227 348c37 0 66 -8 91 -21v-103c-30 18 -57 29 -88 29c-75 0 -130 -80 -130 -249v-30c0 -192 60 -253 123 -253c9 0 13 1 23 3v212h-74v88h164v-366c-42 -19 -74 -28 -117 -28z" />
    <glyph glyph-name="gdotaccent" unicode="&#x121;" horiz-adv-x="382" 
d="M165 -132c-45 0 -78 7 -115 18v89c34 -13 78 -23 105 -23c58 0 92 26 92 91v74c-18 -41 -47 -86 -99 -86c-66 0 -120 71 -120 252v7c0 181 54 252 120 252c52 0 81 -44 99 -85v76h96v-496c0 -56 -15 -96 -44 -125c-30 -30 -76 -44 -134 -44zM184 121c35 0 65 56 65 163v5
c0 106 -30 163 -65 163s-61 -56 -61 -164v-3c0 -109 26 -164 61 -164zM153 583v96h90v-96h-90z" />
    <glyph glyph-name="Hbar" unicode="&#x126;" horiz-adv-x="435" 
d="M8 528v85h41v87h99v-89h139v89h99v-87h41v-85h-41v-528h-99v305h-139v-305h-99v528h-41zM148 399h139v131h-139v-131z" />
    <glyph glyph-name="hbar" unicode="&#x127;" horiz-adv-x="377" 
d="M221 585h-87v-120c20 42 49 77 99 77c69 0 108 -58 108 -148v-394h-95v374c0 54 -20 83 -53 83c-34 0 -59 -32 -59 -85v-372h-95v584h-37v68h37v54h95v-54h87v-67z" />
    <glyph glyph-name="Iacute" unicode="&#xcd;" horiz-adv-x="190" 
d="M46 0v700h98v-700h-98zM54 737l79 120l85 -42l-93 -78h-71z" />
    <glyph glyph-name="iacute" unicode="&#xed;" horiz-adv-x="178" 
d="M51 575l79 141l79 -42l-93 -99h-65zM42 0v533h95v-533h-95z" />
    <glyph glyph-name="Ibreve" unicode="&#x12c;" horiz-adv-x="190" 
d="M46 0v700h98v-700h-98zM95 733c-60 0 -106 33 -109 102h60c6 -27 22 -39 49 -39c26 0 43 12 49 39h60c-4 -69 -49 -102 -109 -102z" />
    <glyph glyph-name="ibreve" unicode="&#x12d;" horiz-adv-x="178" 
d="M42 0v533h95v-533h-95zM90 572c-58 0 -105 35 -110 112h59c5 -31 21 -50 51 -50s46 19 51 50h60c-6 -77 -53 -112 -111 -112z" />
    <glyph glyph-name="Icircumflex" unicode="&#xce;" horiz-adv-x="190" 
d="M46 0v700h98v-700h-98zM-18 738l73 112h80l73 -112h-70l-44 51l-44 -51h-68z" />
    <glyph glyph-name="icircumflex" unicode="&#xee;" horiz-adv-x="178" 
d="M-21 577l75 134h72l75 -134h-65l-47 66l-47 -66h-63zM42 0v533h95v-533h-95z" />
    <glyph glyph-name="Idieresis" unicode="&#xcf;" horiz-adv-x="190" 
d="M46 0v700h98v-700h-98zM118 742v94h90v-94h-90zM-18 742v94h90v-94h-90z" />
    <glyph glyph-name="idieresis" unicode="&#xef;" horiz-adv-x="178" 
d="M111 580v96h88v-96h-88zM-19 580v96h88v-96h-88zM42 0v533h95v-533h-95z" />
    <glyph glyph-name="Idotaccent" unicode="&#x130;" horiz-adv-x="190" 
d="M46 0v700h98v-700h-98zM49 742v94h92v-94h-92z" />
    <glyph glyph-name="dotlessi" unicode="&#x131;" horiz-adv-x="178" 
d="M42 0v533h95v-533h-95z" />
    <glyph glyph-name="Igrave" unicode="&#xcc;" horiz-adv-x="190" 
d="M46 0v700h98v-700h-98zM137 737h-71l-93 78l85 42z" />
    <glyph glyph-name="igrave" unicode="&#xec;" horiz-adv-x="178" 
d="M42 0v533h95v-533h-95zM63 575l-94 99l79 42l80 -141h-65z" />
    <glyph glyph-name="Imacron" unicode="&#x12a;" horiz-adv-x="190" 
d="M46 0v700h98v-700h-98zM-18 742v68h227v-68h-227z" />
    <glyph glyph-name="imacron" unicode="&#x12b;" horiz-adv-x="178" 
d="M42 0v533h95v-533h-95zM-18 581v66h216v-66h-216z" />
    <glyph glyph-name="Iogonek" unicode="&#x12e;" horiz-adv-x="190" 
d="M46 0v700h98v-700h-12c-17 -23 -24 -38 -24 -54c0 -22 14 -29 41 -27v-58c-14 -2 -25 -3 -34 -3c-57 0 -87 23 -87 64c0 30 14 53 37 78h-19z" />
    <glyph glyph-name="iogonek" unicode="&#x12f;" horiz-adv-x="178" 
d="M42 0v533h95v-533h-11c-17 -23 -24 -38 -24 -54c0 -22 14 -29 41 -27v-58c-14 -2 -25 -3 -34 -3c-57 0 -87 23 -87 64c0 30 14 53 37 78h-17zM40 602v104h98v-104h-98z" />
    <glyph glyph-name="Kcommaaccent" unicode="&#x136;" horiz-adv-x="393" 
d="M157 -208l-7 33c37 8 48 21 46 53h-40v80h90v-72c0 -61 -31 -85 -89 -94zM42 0v700h99v-329l129 329h108l-130 -302l138 -398h-107l-101 288l-37 -88v-200h-99z" />
    <glyph glyph-name="kcommaaccent" unicode="&#x137;" horiz-adv-x="348" 
d="M135 -208l-7 33c37 8 48 21 46 53h-40v80h90v-72c0 -61 -31 -85 -89 -94zM39 0v706h95v-408l99 235h103l-100 -215l100 -318h-104l-66 225l-32 -71v-154h-95z" />
    <glyph glyph-name="Lacute" unicode="&#x139;" horiz-adv-x="295" 
d="M65 736l79 120l85 -42l-93 -78h-71zM42 0v700h99v-607h143v-93h-242z" />
    <glyph glyph-name="lacute" unicode="&#x13a;" horiz-adv-x="178" 
d="M56 737l79 120l85 -42l-93 -78h-71zM42 0v706h95v-706h-95z" />
    <glyph glyph-name="Lcaron" unicode="&#x13d;" horiz-adv-x="295" 
d="M169 555l9 146h67v-2l-34 -144h-42zM42 0v700h99v-607h143v-93h-242z" />
    <glyph glyph-name="lcaron" unicode="&#x13e;" horiz-adv-x="178" 
d="M163 560l9 146h67v-2l-34 -144h-42zM42 0v706h95v-706h-95z" />
    <glyph glyph-name="Lcommaaccent" unicode="&#x13b;" horiz-adv-x="295" 
d="M118 -213l-7 33c37 8 48 21 46 53h-40v80h90v-72c0 -61 -31 -85 -89 -94zM42 0v700h99v-607h143v-93h-242z" />
    <glyph glyph-name="lcommaaccent" unicode="&#x13c;" horiz-adv-x="178" 
d="M45 -213l-7 33c37 8 48 21 46 53h-40v80h90v-72c0 -61 -31 -85 -89 -94zM42 0v706h95v-706h-95z" />
    <glyph glyph-name="Ldot" unicode="&#x13f;" horiz-adv-x="295" 
d="M196 313v96h84v-96h-84zM42 0v700h99v-607h143v-93h-242z" />
    <glyph glyph-name="ldot" unicode="&#x140;" horiz-adv-x="254" 
d="M179 309v98h75v-98h-75zM42 0v706h95v-706h-95z" />
    <glyph glyph-name="Lslash" unicode="&#x141;" horiz-adv-x="316" 
d="M223 374l-75 -45v-236h143v-93h-242v268l-41 -25v97l41 24v336h99v-275l75 46v-97z" />
    <glyph glyph-name="lslash" unicode="&#x142;" horiz-adv-x="206" 
d="M201 374l-50 -31v-343h-95v284l-50 -31v94l50 31v328h95v-269l50 32v-95z" />
    <glyph glyph-name="Nacute" unicode="&#x143;" horiz-adv-x="426" 
d="M171 732l79 120l85 -42l-93 -78h-71zM42 0v700h94l153 -430v430h95v-700h-88l-159 446v-446h-95z" />
    <glyph glyph-name="nacute" unicode="&#x144;" horiz-adv-x="377" 
d="M152 578l79 141l79 -42l-93 -99h-65zM39 0v533h95v-68c20 42 49 77 99 77c69 0 108 -58 108 -148v-394h-95v374c0 54 -20 83 -53 83c-34 0 -59 -32 -59 -85v-372h-95z" />
    <glyph glyph-name="Ncaron" unicode="&#x147;" horiz-adv-x="426" 
d="M326 845l-73 -112h-80l-73 112h70l44 -51l44 51h68zM42 0v700h94l153 -430v430h95v-700h-88l-159 446v-446h-95z" />
    <glyph glyph-name="ncaron" unicode="&#x148;" horiz-adv-x="377" 
d="M301 714l-75 -134h-72l-75 134h65l47 -66l47 66h63zM39 0v533h95v-68c20 42 49 77 99 77c69 0 108 -58 108 -148v-394h-95v374c0 54 -20 83 -53 83c-34 0 -59 -32 -59 -85v-372h-95z" />
    <glyph glyph-name="Ncommaaccent" unicode="&#x145;" horiz-adv-x="426" 
d="M169 -208l-7 33c37 8 48 21 46 53h-40v80h90v-72c0 -61 -31 -85 -89 -94zM42 0v700h94l153 -430v430h95v-700h-88l-159 446v-446h-95z" />
    <glyph glyph-name="ncommaaccent" unicode="&#x146;" horiz-adv-x="377" 
d="M146 -208l-7 33c37 8 48 21 46 53h-40v80h90v-72c0 -61 -31 -85 -89 -94zM39 0v533h95v-68c20 42 49 77 99 77c69 0 108 -58 108 -148v-394h-95v374c0 54 -20 83 -53 83c-34 0 -59 -32 -59 -85v-372h-95z" />
    <glyph glyph-name="Ntilde" unicode="&#xd1;" horiz-adv-x="426" 
d="M274 731c-21 0 -40 10 -59 20c-18 10 -32 17 -41 17c-13 0 -19 -11 -27 -38l-58 14c13 68 33 96 69 96c22 0 42 -10 62 -21c17 -9 29 -15 38 -15c13 0 19 10 27 38l58 -15c-13 -67 -33 -96 -69 -96zM42 0v700h94l153 -430v430h95v-700h-88l-159 446v-446h-95z" />
    <glyph glyph-name="ntilde" unicode="&#xf1;" horiz-adv-x="377" 
d="M39 0v533h95v-68c20 42 49 77 99 77c69 0 108 -58 108 -148v-394h-95v374c0 54 -20 83 -53 83c-34 0 -59 -32 -59 -85v-372h-95zM250 578c-20 0 -39 11 -59 22c-17 11 -30 17 -39 17c-14 0 -20 -11 -28 -40l-55 13c13 70 32 97 67 97c20 0 39 -10 59 -22
c17 -11 30 -17 39 -17c15 0 20 11 28 41l55 -14c-13 -69 -32 -97 -67 -97z" />
    <glyph glyph-name="Oacute" unicode="&#xd3;" horiz-adv-x="416" 
d="M166 742l79 120l85 -42l-93 -78h-71zM208 -9c-106 0 -180 113 -180 344v30c0 231 74 344 180 344s180 -113 180 -344v-30c0 -231 -74 -344 -180 -344zM208 81c47 0 80 67 80 254v30c0 187 -33 254 -80 254s-80 -67 -80 -254v-30c0 -187 33 -254 80 -254z" />
    <glyph glyph-name="oacute" unicode="&#xf3;" horiz-adv-x="373" 
d="M149 578l79 141l79 -42l-93 -99h-65zM187 -9c-91 0 -161 92 -161 262v25c0 170 70 263 161 263s161 -93 161 -263v-25c0 -170 -70 -262 -161 -262zM187 76c38 0 65 62 65 176v28c0 115 -27 176 -65 176c-39 0 -66 -61 -66 -176v-28c0 -114 27 -176 66 -176z" />
    <glyph glyph-name="Obreve" unicode="&#x14e;" horiz-adv-x="416" 
d="M208 738c-60 0 -106 33 -109 102h60c6 -27 22 -39 49 -39c26 0 43 12 49 39h60c-4 -69 -49 -102 -109 -102zM208 -9c-106 0 -180 113 -180 344v30c0 231 74 344 180 344s180 -113 180 -344v-30c0 -231 -74 -344 -180 -344zM208 81c47 0 80 67 80 254v30
c0 187 -33 254 -80 254s-80 -67 -80 -254v-30c0 -187 33 -254 80 -254z" />
    <glyph glyph-name="obreve" unicode="&#x14f;" horiz-adv-x="373" 
d="M187 -9c-91 0 -161 92 -161 262v25c0 170 70 263 161 263s161 -93 161 -263v-25c0 -170 -70 -262 -161 -262zM187 76c38 0 65 62 65 176v28c0 115 -27 176 -65 176c-39 0 -66 -61 -66 -176v-28c0 -114 27 -176 66 -176zM187 575c-58 0 -105 35 -110 112h59
c5 -31 21 -50 51 -50s46 19 51 50h60c-6 -77 -53 -112 -111 -112z" />
    <glyph glyph-name="Ocircumflex" unicode="&#xd4;" horiz-adv-x="416" 
d="M208 -9c-106 0 -180 113 -180 344v30c0 231 74 344 180 344s180 -113 180 -344v-30c0 -231 -74 -344 -180 -344zM208 81c47 0 80 67 80 254v30c0 187 -33 254 -80 254s-80 -67 -80 -254v-30c0 -187 33 -254 80 -254zM95 743l73 112h80l73 -112h-70l-44 51l-44 -51h-68z
" />
    <glyph glyph-name="ocircumflex" unicode="&#xf4;" horiz-adv-x="373" 
d="M76 580l75 134h72l75 -134h-65l-47 66l-47 -66h-63zM187 -9c-91 0 -161 92 -161 262v25c0 170 70 263 161 263s161 -93 161 -263v-25c0 -170 -70 -262 -161 -262zM187 76c38 0 65 62 65 176v28c0 115 -27 176 -65 176c-39 0 -66 -61 -66 -176v-28c0 -114 27 -176 66 -176
z" />
    <glyph glyph-name="Odieresis" unicode="&#xd6;" horiz-adv-x="416" 
d="M231 747v94h90v-94h-90zM95 747v94h90v-94h-90zM208 -9c-106 0 -180 113 -180 344v30c0 231 74 344 180 344s180 -113 180 -344v-30c0 -231 -74 -344 -180 -344zM208 81c47 0 80 67 80 254v30c0 187 -33 254 -80 254s-80 -67 -80 -254v-30c0 -187 33 -254 80 -254z" />
    <glyph glyph-name="odieresis" unicode="&#xf6;" horiz-adv-x="373" 
d="M208 583v96h88v-96h-88zM78 583v96h88v-96h-88zM187 -9c-91 0 -161 92 -161 262v25c0 170 70 263 161 263s161 -93 161 -263v-25c0 -170 -70 -262 -161 -262zM187 76c38 0 65 62 65 176v28c0 115 -27 176 -65 176c-39 0 -66 -61 -66 -176v-28c0 -114 27 -176 66 -176z
" />
    <glyph glyph-name="OE" unicode="&#x152;" horiz-adv-x="557" 
d="M267 0c-149 0 -239 114 -239 339v22c0 225 90 339 239 339h262v-93h-160v-208h143v-93h-143v-213h163v-93h-265zM258 90h12v520h-13c-72 0 -129 -67 -129 -249v-22c0 -182 58 -249 130 -249z" />
    <glyph glyph-name="oe" unicode="&#x153;" horiz-adv-x="584" 
d="M187 -9c-91 0 -161 92 -161 262v25c0 170 70 263 161 263c50 0 91 -31 116 -88c25 58 65 88 112 88c89 0 148 -93 148 -266v-52h-210c6 -102 48 -143 96 -143c35 0 59 13 93 37l8 -89c-40 -25 -69 -37 -113 -37c-57 0 -104 32 -132 92c-25 -60 -66 -92 -118 -92zM353 299
h120c0 99 -21 157 -58 157c-35 0 -60 -49 -62 -157zM187 76c38 0 65 62 65 176v28c0 115 -27 176 -65 176c-39 0 -66 -61 -66 -176v-28c0 -114 27 -176 66 -176z" />
    <glyph glyph-name="Ograve" unicode="&#xd2;" horiz-adv-x="416" 
d="M250 742h-71l-93 78l85 42zM208 -9c-106 0 -180 113 -180 344v30c0 231 74 344 180 344s180 -113 180 -344v-30c0 -231 -74 -344 -180 -344zM208 81c47 0 80 67 80 254v30c0 187 -33 254 -80 254s-80 -67 -80 -254v-30c0 -187 33 -254 80 -254z" />
    <glyph glyph-name="ograve" unicode="&#xf2;" horiz-adv-x="373" 
d="M187 -9c-91 0 -161 92 -161 262v25c0 170 70 263 161 263s161 -93 161 -263v-25c0 -170 -70 -262 -161 -262zM187 76c38 0 65 62 65 176v28c0 115 -27 176 -65 176c-39 0 -66 -61 -66 -176v-28c0 -114 27 -176 66 -176zM161 578l-94 99l79 42l80 -141h-65z" />
    <glyph glyph-name="Ohungarumlaut" unicode="&#x150;" horiz-adv-x="416" 
d="M208 -9c-106 0 -180 113 -180 344v30c0 231 74 344 180 344s180 -113 180 -344v-30c0 -231 -74 -344 -180 -344zM208 81c47 0 80 67 80 254v30c0 187 -33 254 -80 254s-80 -67 -80 -254v-30c0 -187 33 -254 80 -254zM113 742l79 120l77 -42l-89 -78h-67zM223 742l79 120
l77 -42l-89 -78h-67z" />
    <glyph glyph-name="ohungarumlaut" unicode="&#x151;" horiz-adv-x="373" 
d="M201 578l80 141l72 -41l-90 -100h-62zM95 578l80 141l72 -41l-90 -100h-62zM187 -9c-91 0 -161 92 -161 262v25c0 170 70 263 161 263s161 -93 161 -263v-25c0 -170 -70 -262 -161 -262zM187 76c38 0 65 62 65 176v28c0 115 -27 176 -65 176c-39 0 -66 -61 -66 -176v-28
c0 -114 27 -176 66 -176z" />
    <glyph glyph-name="Omacron" unicode="&#x14c;" horiz-adv-x="416" 
d="M95 747v68h227v-68h-227zM208 -9c-106 0 -180 113 -180 344v30c0 231 74 344 180 344s180 -113 180 -344v-30c0 -231 -74 -344 -180 -344zM208 81c47 0 80 67 80 254v30c0 187 -33 254 -80 254s-80 -67 -80 -254v-30c0 -187 33 -254 80 -254z" />
    <glyph glyph-name="omacron" unicode="&#x14d;" horiz-adv-x="373" 
d="M79 584v66h216v-66h-216zM187 -9c-91 0 -161 92 -161 262v25c0 170 70 263 161 263s161 -93 161 -263v-25c0 -170 -70 -262 -161 -262zM187 76c38 0 65 62 65 176v28c0 115 -27 176 -65 176c-39 0 -66 -61 -66 -176v-28c0 -114 27 -176 66 -176z" />
    <glyph glyph-name="Oslash" unicode="&#xd8;" horiz-adv-x="416" 
d="M323 706h61l-40 -95c28 -57 44 -139 44 -246v-30c0 -231 -74 -344 -180 -344c-38 0 -71 14 -99 42l-16 -39h-61l39 95c-27 57 -43 138 -43 246v30c0 231 74 344 180 344c37 0 71 -14 98 -43zM126 335c0 -40 1 -75 4 -104l137 331c-14 41 -35 59 -59 59
c-47 0 -82 -69 -82 -256v-30zM208 79c47 0 82 69 82 256v30c0 39 -2 74 -5 103l-137 -330c15 -41 35 -59 60 -59z" />
    <glyph glyph-name="oslash" unicode="&#xf8;" horiz-adv-x="373" 
d="M292 538h61l-42 -81c23 -43 37 -104 37 -179v-25c0 -170 -70 -262 -161 -262c-34 0 -64 12 -89 36l-17 -34h-60l41 81c-23 44 -36 104 -36 179v25c0 170 70 263 161 263c33 0 63 -12 88 -36zM187 74c40 0 71 64 71 178v28c0 24 -1 46 -4 66l-116 -231
c12 -27 29 -41 49 -41zM116 252c0 -24 1 -46 3 -65l116 230c-12 27 -30 40 -48 40c-41 0 -71 -62 -71 -177v-28z" />
    <glyph glyph-name="Oslashacute" unicode="&#x1fe;" horiz-adv-x="416" 
d="M323 706h61l-40 -95c28 -57 44 -139 44 -246v-30c0 -231 -74 -344 -180 -344c-38 0 -71 14 -99 42l-16 -39h-61l39 95c-27 57 -43 138 -43 246v30c0 231 74 344 180 344c37 0 71 -14 98 -43zM126 335c0 -40 1 -75 4 -104l137 331c-14 41 -35 59 -59 59
c-47 0 -82 -69 -82 -256v-30zM208 79c47 0 82 69 82 256v30c0 39 -2 74 -5 103l-137 -330c15 -41 35 -59 60 -59zM167 742l79 120l85 -42l-93 -78h-71z" />
    <glyph glyph-name="oslashacute" unicode="&#x1ff;" horiz-adv-x="373" 
d="M292 538h61l-42 -81c23 -43 37 -104 37 -179v-25c0 -170 -70 -262 -161 -262c-34 0 -64 12 -89 36l-17 -34h-60l41 81c-23 44 -36 104 -36 179v25c0 170 70 263 161 263c33 0 63 -12 88 -36zM187 74c40 0 71 64 71 178v28c0 24 -1 46 -4 66l-116 -231
c12 -27 29 -41 49 -41zM116 252c0 -24 1 -46 3 -65l116 230c-12 27 -30 40 -48 40c-41 0 -71 -62 -71 -177v-28zM148 578l79 141l79 -42l-93 -99h-65z" />
    <glyph glyph-name="Otilde" unicode="&#xd5;" horiz-adv-x="416" 
d="M269 741c-21 0 -40 10 -59 20c-18 10 -32 17 -41 17c-13 0 -19 -11 -27 -38l-58 14c13 68 33 96 69 96c22 0 42 -10 62 -21c17 -9 29 -15 38 -15c13 0 19 10 27 38l58 -15c-13 -67 -33 -96 -69 -96zM208 -9c-106 0 -180 113 -180 344v30c0 231 74 344 180 344
s180 -113 180 -344v-30c0 -231 -74 -344 -180 -344zM208 81c47 0 80 67 80 254v30c0 187 -33 254 -80 254s-80 -67 -80 -254v-30c0 -187 33 -254 80 -254z" />
    <glyph glyph-name="otilde" unicode="&#xf5;" horiz-adv-x="373" 
d="M187 -9c-91 0 -161 92 -161 262v25c0 170 70 263 161 263s161 -93 161 -263v-25c0 -170 -70 -262 -161 -262zM187 76c38 0 65 62 65 176v28c0 115 -27 176 -65 176c-39 0 -66 -61 -66 -176v-28c0 -114 27 -176 66 -176zM247 578c-20 0 -39 11 -59 22
c-17 11 -30 17 -39 17c-14 0 -20 -11 -28 -40l-55 13c13 70 32 97 67 97c20 0 39 -10 59 -22c17 -11 30 -17 39 -17c15 0 20 11 28 41l55 -14c-13 -69 -32 -97 -67 -97z" />
    <glyph glyph-name="Racute" unicode="&#x154;" horiz-adv-x="394" 
d="M42 0v700h114c64 0 118 -18 155 -55c36 -37 57 -90 57 -163v-7c0 -93 -39 -154 -94 -187l106 -288h-106l-94 256c-4 0 -9 -1 -13 -1h-26v-255h-99zM141 344h17c66 0 111 40 111 130v6c0 96 -48 128 -114 128h-14v-264zM147 737l79 120l85 -42l-93 -78h-71z" />
    <glyph glyph-name="racute" unicode="&#x155;" horiz-adv-x="245" 
d="M90 575l79 141l79 -42l-93 -99h-65zM39 0v533h95v-70c17 46 47 79 97 76v-113h-2c-59 0 -95 -39 -95 -120v-306h-95z" />
    <glyph glyph-name="Rcaron" unicode="&#x158;" horiz-adv-x="394" 
d="M301 850l-73 -112h-80l-73 112h70l44 -51l44 51h68zM42 0v700h114c64 0 118 -18 155 -55c36 -37 57 -90 57 -163v-7c0 -93 -39 -154 -94 -187l106 -288h-106l-94 256c-4 0 -9 -1 -13 -1h-26v-255h-99zM141 344h17c66 0 111 40 111 130v6c0 96 -48 128 -114 128h-14v-264z
" />
    <glyph glyph-name="rcaron" unicode="&#x159;" horiz-adv-x="245" 
d="M240 711l-75 -134h-72l-75 134h65l47 -66l47 66h63zM39 0v533h95v-70c17 46 47 79 97 76v-113h-2c-59 0 -95 -39 -95 -120v-306h-95z" />
    <glyph glyph-name="Rcommaaccent" unicode="&#x156;" horiz-adv-x="394" 
d="M146 -208l-7 33c37 8 48 21 46 53h-40v80h90v-72c0 -61 -31 -85 -89 -94zM42 0v700h114c64 0 118 -18 155 -55c36 -37 57 -90 57 -163v-7c0 -93 -39 -154 -94 -187l106 -288h-106l-94 256c-4 0 -9 -1 -13 -1h-26v-255h-99zM141 344h17c66 0 111 40 111 130v6
c0 96 -48 128 -114 128h-14v-264z" />
    <glyph glyph-name="rcommaaccent" unicode="&#x157;" horiz-adv-x="245" 
d="M48 -213l-7 33c37 8 48 21 46 53h-40v80h90v-72c0 -61 -31 -85 -89 -94zM39 0v533h95v-70c17 46 47 79 97 76v-113h-2c-59 0 -95 -39 -95 -120v-306h-95z" />
    <glyph glyph-name="Sacute" unicode="&#x15a;" horiz-adv-x="327" 
d="M148 -6c-46 0 -86 12 -123 32v102c44 -27 76 -41 112 -41c45 0 76 28 76 79c0 34 -11 67 -76 144c-88 103 -118 149 -118 225v1c0 102 70 170 163 170c44 0 76 -10 105 -25v-102c-38 23 -65 34 -97 34c-40 0 -72 -28 -72 -74c0 -36 13 -62 77 -138
c93 -110 117 -159 117 -234v-1c0 -104 -72 -172 -164 -172zM129 742l79 120l85 -42l-93 -78h-71z" />
    <glyph glyph-name="sacute" unicode="&#x15b;" horiz-adv-x="283" 
d="M127 -9c-37 0 -74 10 -108 25v95c39 -21 74 -34 103 -34c33 0 55 20 55 54c0 27 -13 50 -67 102c-61 60 -94 106 -94 169v2c0 84 59 136 142 136c33 0 58 -4 87 -15v-94c-26 13 -54 23 -83 23c-33 0 -54 -19 -54 -48c0 -27 12 -45 70 -101c68 -67 91 -110 91 -170v-2
c0 -87 -63 -142 -142 -142zM106 578l79 141l79 -42l-93 -99h-65z" />
    <glyph glyph-name="Scaron" unicode="&#x160;" horiz-adv-x="327" 
d="M148 -6c-46 0 -86 12 -123 32v102c44 -27 76 -41 112 -41c45 0 76 28 76 79c0 34 -11 67 -76 144c-88 103 -118 149 -118 225v1c0 102 70 170 163 170c44 0 76 -10 105 -25v-102c-38 23 -65 34 -97 34c-40 0 -72 -28 -72 -74c0 -36 13 -62 77 -138
c93 -110 117 -159 117 -234v-1c0 -104 -72 -172 -164 -172zM283 855l-73 -112h-80l-73 112h70l44 -51l44 51h68z" />
    <glyph glyph-name="scaron" unicode="&#x161;" horiz-adv-x="283" 
d="M127 -9c-37 0 -74 10 -108 25v95c39 -21 74 -34 103 -34c33 0 55 20 55 54c0 27 -13 50 -67 102c-61 60 -94 106 -94 169v2c0 84 59 136 142 136c33 0 58 -4 87 -15v-94c-26 13 -54 23 -83 23c-33 0 -54 -19 -54 -48c0 -27 12 -45 70 -101c68 -67 91 -110 91 -170v-2
c0 -87 -63 -142 -142 -142zM255 714l-75 -134h-72l-75 134h65l47 -66l47 66h63z" />
    <glyph glyph-name="Scedilla" unicode="&#x15e;" horiz-adv-x="327" 
d="M158 -122l-84 32l54 85c-38 3 -72 14 -103 31v102c44 -27 76 -41 112 -41c45 0 76 28 76 79c0 34 -11 67 -76 144c-88 103 -118 149 -118 225v1c0 102 70 170 163 170c44 0 76 -10 105 -25v-102c-38 23 -65 34 -97 34c-40 0 -72 -28 -72 -74c0 -36 13 -62 77 -138
c93 -110 117 -159 117 -234v-1c0 -84 -46 -144 -112 -164z" />
    <glyph glyph-name="scedilla" unicode="&#x15f;" horiz-adv-x="283" 
d="M134 -122l-84 32l53 82c-29 3 -58 12 -84 24v95c39 -21 74 -34 103 -34c33 0 55 20 55 54c0 27 -13 50 -67 102c-61 60 -94 106 -94 169v2c0 84 59 136 142 136c33 0 58 -4 87 -15v-94c-26 13 -54 23 -83 23c-33 0 -54 -19 -54 -48c0 -27 12 -45 70 -101
c68 -67 91 -110 91 -170v-2c0 -69 -39 -118 -95 -135z" />
    <glyph glyph-name="Scommaaccent" unicode="&#x218;" horiz-adv-x="327" 
d="M148 -6c-46 0 -86 12 -123 32v102c44 -27 76 -41 112 -41c45 0 76 28 76 79c0 34 -11 67 -76 144c-88 103 -118 149 -118 225v1c0 102 70 170 163 170c44 0 76 -10 105 -25v-102c-38 23 -65 34 -97 34c-40 0 -72 -28 -72 -74c0 -36 13 -62 77 -138
c93 -110 117 -159 117 -234v-1c0 -104 -72 -172 -164 -172zM114 -216l-7 33c37 8 48 21 46 53h-40v80h90v-72c0 -61 -31 -85 -89 -94z" />
    <glyph glyph-name="scommaaccent" unicode="&#x219;" horiz-adv-x="283" 
d="M127 -9c-37 0 -74 10 -108 25v95c39 -21 74 -34 103 -34c33 0 55 20 55 54c0 27 -13 50 -67 102c-61 60 -94 106 -94 169v2c0 84 59 136 142 136c33 0 58 -4 87 -15v-94c-26 13 -54 23 -83 23c-33 0 -54 -19 -54 -48c0 -27 12 -45 70 -101c68 -67 91 -110 91 -170v-2
c0 -87 -63 -142 -142 -142zM93 -216l-7 33c37 8 48 21 46 53h-40v80h90v-72c0 -61 -31 -85 -89 -94z" />
    <glyph glyph-name="Tcaron" unicode="&#x164;" horiz-adv-x="316" 
d="M271 850l-73 -112h-80l-73 112h70l44 -51l44 51h68zM109 0v607h-95v93h288v-93h-95v-607h-98z" />
    <glyph glyph-name="tcaron" unicode="&#x165;" horiz-adv-x="238" 
d="M178 560l9 146h67v-2l-34 -144h-42zM159 -6c-57 0 -105 20 -105 97v363h-38v79h38v140h95v-140h69v-79h-69v-333c0 -31 15 -41 39 -41c10 0 21 2 30 6v-78c-15 -8 -39 -14 -59 -14z" />
    <glyph glyph-name="Tcommaaccent" unicode="&#x162;" horiz-adv-x="316" 
d="M114 -213l-7 33c37 8 48 21 46 53h-40v80h90v-72c0 -61 -31 -85 -89 -94zM109 0v607h-95v93h288v-93h-95v-607h-98z" />
    <glyph glyph-name="tcommaaccent" unicode="&#x163;" horiz-adv-x="238" 
d="M89 -216l-7 33c37 8 48 21 46 53h-40v80h90v-72c0 -61 -31 -85 -89 -94zM159 -6c-57 0 -105 20 -105 97v363h-38v79h38v140h95v-140h69v-79h-69v-333c0 -31 15 -41 39 -41c10 0 21 2 30 6v-78c-15 -8 -39 -14 -59 -14z" />
    <glyph glyph-name="Thorn" unicode="&#xde;" horiz-adv-x="379" 
d="M42 0v700h99v-104h13c108 0 209 -69 209 -230v-2c0 -151 -84 -230 -210 -236h-12v-128h-99zM141 218h13c66 3 110 49 110 143v2c0 96 -42 142 -108 142h-15v-287z" />
    <glyph glyph-name="thorn" unicode="&#xfe;" horiz-adv-x="382" 
d="M39 -130v836h95v-250c18 40 47 86 99 86c66 0 121 -70 121 -256v-39c0 -184 -55 -256 -121 -256c-52 0 -80 44 -99 85v-206h-95zM198 81c37 0 61 61 61 170v31c0 110 -24 170 -61 170s-65 -60 -65 -169v-33c0 -109 28 -169 65 -169z" />
    <glyph glyph-name="Uacute" unicode="&#xda;" horiz-adv-x="413" 
d="M166 732l79 120l85 -42l-93 -78h-71zM207 -9c-98 0 -168 68 -168 206v503h99v-512c0 -72 28 -105 69 -105c40 0 68 33 68 105v512h99v-503c0 -138 -70 -206 -167 -206z" />
    <glyph glyph-name="uacute" unicode="&#xfa;" horiz-adv-x="377" 
d="M149 570l79 141l79 -42l-93 -99h-65zM144 -9c-69 0 -108 58 -108 147v395h95v-374c0 -54 20 -83 53 -83c34 0 59 32 59 85v372h95v-533h-95v68c-20 -42 -49 -77 -99 -77z" />
    <glyph glyph-name="Ubreve" unicode="&#x16c;" horiz-adv-x="413" 
d="M207 725c-60 0 -106 33 -109 102h60c6 -27 22 -39 49 -39c26 0 43 12 49 39h60c-4 -69 -49 -102 -109 -102zM207 -9c-98 0 -168 68 -168 206v503h99v-512c0 -72 28 -105 69 -105c40 0 68 33 68 105v512h99v-503c0 -138 -70 -206 -167 -206z" />
    <glyph glyph-name="ubreve" unicode="&#x16d;" horiz-adv-x="377" 
d="M144 -9c-69 0 -108 58 -108 147v395h95v-374c0 -54 20 -83 53 -83c34 0 59 32 59 85v372h95v-533h-95v68c-20 -42 -49 -77 -99 -77zM187 567c-58 0 -105 35 -110 112h59c5 -31 21 -50 51 -50s46 19 51 50h60c-6 -77 -53 -112 -111 -112z" />
    <glyph glyph-name="Ucircumflex" unicode="&#xdb;" horiz-adv-x="413" 
d="M207 -9c-98 0 -168 68 -168 206v503h99v-512c0 -72 28 -105 69 -105c40 0 68 33 68 105v512h99v-503c0 -138 -70 -206 -167 -206zM94 733l73 112h80l73 -112h-70l-44 51l-44 -51h-68z" />
    <glyph glyph-name="ucircumflex" unicode="&#xfb;" horiz-adv-x="377" 
d="M76 572l75 134h72l75 -134h-65l-47 66l-47 -66h-63zM144 -9c-69 0 -108 58 -108 147v395h95v-374c0 -54 20 -83 53 -83c34 0 59 32 59 85v372h95v-533h-95v68c-20 -42 -49 -77 -99 -77z" />
    <glyph glyph-name="Udieresis" unicode="&#xdc;" horiz-adv-x="413" 
d="M230 737v94h90v-94h-90zM94 737v94h90v-94h-90zM207 -9c-98 0 -168 68 -168 206v503h99v-512c0 -72 28 -105 69 -105c40 0 68 33 68 105v512h99v-503c0 -138 -70 -206 -167 -206z" />
    <glyph glyph-name="udieresis" unicode="&#xfc;" horiz-adv-x="377" 
d="M208 576v96h88v-96h-88zM78 576v96h88v-96h-88zM144 -9c-69 0 -108 58 -108 147v395h95v-374c0 -54 20 -83 53 -83c34 0 59 32 59 85v372h95v-533h-95v68c-20 -42 -49 -77 -99 -77z" />
    <glyph glyph-name="Ugrave" unicode="&#xd9;" horiz-adv-x="413" 
d="M248 732h-71l-93 78l85 42zM207 -9c-98 0 -168 68 -168 206v503h99v-512c0 -72 28 -105 69 -105c40 0 68 33 68 105v512h99v-503c0 -138 -70 -206 -167 -206z" />
    <glyph glyph-name="ugrave" unicode="&#xf9;" horiz-adv-x="377" 
d="M144 -9c-69 0 -108 58 -108 147v395h95v-374c0 -54 20 -83 53 -83c34 0 59 32 59 85v372h95v-533h-95v68c-20 -42 -49 -77 -99 -77zM161 570l-94 99l79 42l80 -141h-65z" />
    <glyph glyph-name="Uhungarumlaut" unicode="&#x170;" horiz-adv-x="413" 
d="M207 -9c-98 0 -168 68 -168 206v503h99v-512c0 -72 28 -105 69 -105c40 0 68 33 68 105v512h99v-503c0 -138 -70 -206 -167 -206zM112 732l79 120l77 -42l-89 -78h-67zM222 732l79 120l77 -42l-89 -78h-67z" />
    <glyph glyph-name="uhungarumlaut" unicode="&#x171;" horiz-adv-x="377" 
d="M144 -9c-69 0 -108 58 -108 147v395h95v-374c0 -54 20 -83 53 -83c34 0 59 32 59 85v372h95v-533h-95v68c-20 -42 -49 -77 -99 -77zM201 570l80 141l72 -41l-90 -100h-62zM95 570l80 141l72 -41l-90 -100h-62z" />
    <glyph glyph-name="Umacron" unicode="&#x16a;" horiz-adv-x="413" 
d="M94 737v68h227v-68h-227zM207 -9c-98 0 -168 68 -168 206v503h99v-512c0 -72 28 -105 69 -105c40 0 68 33 68 105v512h99v-503c0 -138 -70 -206 -167 -206z" />
    <glyph glyph-name="umacron" unicode="&#x16b;" horiz-adv-x="377" 
d="M144 -9c-69 0 -108 58 -108 147v395h95v-374c0 -54 20 -83 53 -83c34 0 59 32 59 85v372h95v-533h-95v68c-20 -42 -49 -77 -99 -77zM79 576v66h216v-66h-216z" />
    <glyph glyph-name="Uogonek" unicode="&#x172;" horiz-adv-x="413" 
d="M262 -81v-58c-14 -2 -25 -3 -34 -3c-57 0 -87 23 -87 64c0 28 11 49 32 72c-80 14 -134 81 -134 203v503h99v-512c0 -72 28 -105 69 -105c40 0 68 33 68 105v512h99v-503c0 -122 -55 -190 -134 -203c-14 -20 -19 -34 -19 -48c0 -22 14 -29 41 -27z" />
    <glyph glyph-name="uogonek" unicode="&#x173;" horiz-adv-x="377" 
d="M144 -9c-69 0 -108 58 -108 147v395h95v-374c0 -54 20 -83 53 -83c34 0 59 32 59 85v372h95v-533h-13c-17 -23 -24 -38 -24 -54c0 -22 14 -29 41 -27v-58c-14 -2 -25 -3 -34 -3c-57 0 -87 23 -87 64c0 30 14 53 37 78h-15v68c-20 -42 -49 -77 -99 -77z" />
    <glyph glyph-name="Uring" unicode="&#x16e;" horiz-adv-x="413" 
d="M207 -9c-98 0 -168 68 -168 206v503h99v-512c0 -72 28 -105 69 -105c40 0 68 33 68 105v512h99v-503c0 -138 -70 -206 -167 -206zM207 718c-47 0 -85 34 -85 81c0 46 39 81 85 81c47 0 85 -34 85 -81s-38 -81 -85 -81zM207 757c24 0 42 17 42 42c0 24 -18 42 -42 42
s-42 -18 -42 -42c0 -25 18 -42 42 -42z" />
    <glyph glyph-name="uring" unicode="&#x16f;" horiz-adv-x="377" 
d="M187 563c-47 0 -85 37 -85 87s38 87 85 87s85 -37 85 -87c0 -49 -38 -87 -85 -87zM187 603c24 0 42 20 42 47s-18 48 -42 48s-42 -21 -42 -48s18 -47 42 -47zM144 -9c-69 0 -108 58 -108 147v395h95v-374c0 -54 20 -83 53 -83c34 0 59 32 59 85v372h95v-533h-95v68
c-20 -42 -49 -77 -99 -77z" />
    <glyph glyph-name="Wacute" unicode="&#x1e82;" horiz-adv-x="598" 
d="M257 737l79 120l85 -42l-93 -78h-71zM122 -3l-111 703h102l64 -484l77 484h91l76 -484l65 484h99l-110 -703h-102l-75 474l-74 -474h-102z" />
    <glyph glyph-name="wacute" unicode="&#x1e83;" horiz-adv-x="528" 
d="M225 575l79 141l79 -42l-93 -99h-65zM114 -2l-97 535h97l54 -353l59 353h76l59 -353l55 353h94l-97 -535h-89l-61 343l-60 -343h-90z" />
    <glyph glyph-name="Wcircumflex" unicode="&#x174;" horiz-adv-x="598" 
d="M122 -3l-111 703h102l64 -484l77 484h91l76 -484l65 484h99l-110 -703h-102l-75 474l-74 -474h-102zM185 738l73 112h80l73 -112h-70l-44 51l-44 -51h-68z" />
    <glyph glyph-name="wcircumflex" unicode="&#x175;" horiz-adv-x="528" 
d="M152 576l75 134h72l75 -134h-65l-47 66l-47 -66h-63zM114 -2l-97 535h97l54 -353l59 353h76l59 -353l55 353h94l-97 -535h-89l-61 343l-60 -343h-90z" />
    <glyph glyph-name="Wdieresis" unicode="&#x1e84;" horiz-adv-x="598" 
d="M321 742v94h90v-94h-90zM185 742v94h90v-94h-90zM122 -3l-111 703h102l64 -484l77 484h91l76 -484l65 484h99l-110 -703h-102l-75 474l-74 -474h-102z" />
    <glyph glyph-name="wdieresis" unicode="&#x1e85;" horiz-adv-x="528" 
d="M284 580v96h88v-96h-88zM154 580v96h88v-96h-88zM114 -2l-97 535h97l54 -353l59 353h76l59 -353l55 353h94l-97 -535h-89l-61 343l-60 -343h-90z" />
    <glyph glyph-name="Wgrave" unicode="&#x1e80;" horiz-adv-x="598" 
d="M339 737h-71l-93 78l85 42zM122 -3l-111 703h102l64 -484l77 484h91l76 -484l65 484h99l-110 -703h-102l-75 474l-74 -474h-102z" />
    <glyph glyph-name="wgrave" unicode="&#x1e81;" horiz-adv-x="528" 
d="M114 -2l-97 535h97l54 -353l59 353h76l59 -353l55 353h94l-97 -535h-89l-61 343l-60 -343h-90zM238 575l-94 99l79 42l80 -141h-65z" />
    <glyph glyph-name="Yacute" unicode="&#xdd;" horiz-adv-x="373" 
d="M137 0v284l-135 416h103l83 -286l83 286h100l-135 -416v-284h-99zM146 732l79 120l85 -42l-93 -78h-71z" />
    <glyph glyph-name="yacute" unicode="&#xfd;" horiz-adv-x="357" 
d="M177 177l71 356h93l-151 -663h-92l33 145l-115 518h94zM141 570l79 141l79 -42l-93 -99h-65z" />
    <glyph glyph-name="Ycircumflex" unicode="&#x176;" horiz-adv-x="373" 
d="M137 0v284l-135 416h103l83 -286l83 286h100l-135 -416v-284h-99zM74 733l73 112h80l73 -112h-70l-44 51l-44 -51h-68z" />
    <glyph glyph-name="ycircumflex" unicode="&#x177;" horiz-adv-x="357" 
d="M177 177l71 356h93l-151 -663h-92l33 145l-115 518h94zM68 572l75 134h72l75 -134h-65l-47 66l-47 -66h-63z" />
    <glyph glyph-name="Ydieresis" unicode="&#x178;" horiz-adv-x="373" 
d="M137 0v284l-135 416h103l83 -286l83 286h100l-135 -416v-284h-99zM210 737v94h90v-94h-90zM74 737v94h90v-94h-90z" />
    <glyph glyph-name="ydieresis" unicode="&#xff;" horiz-adv-x="357" 
d="M177 177l71 356h93l-151 -663h-92l33 145l-115 518h94zM70 575v96h88v-96h-88zM200 575v96h88v-96h-88z" />
    <glyph glyph-name="Ygrave" unicode="&#x1ef2;" horiz-adv-x="373" 
d="M137 0v284l-135 416h103l83 -286l83 286h100l-135 -416v-284h-99zM228 732h-71l-93 78l85 42z" />
    <glyph glyph-name="ygrave" unicode="&#x1ef3;" horiz-adv-x="357" 
d="M177 177l71 356h93l-151 -663h-92l33 145l-115 518h94zM152 570l-94 99l79 42l80 -141h-65z" />
    <glyph glyph-name="Zacute" unicode="&#x179;" horiz-adv-x="339" 
d="M25 0v76l182 532h-174v92h282v-75l-182 -533h182v-92h-290zM132 737l79 120l85 -42l-93 -78h-71z" />
    <glyph glyph-name="zacute" unicode="&#x17a;" horiz-adv-x="290" 
d="M111 575l79 141l79 -42l-93 -99h-65zM16 0v66l156 386h-149v81h251v-67l-156 -385h155v-81h-257z" />
    <glyph glyph-name="Zcaron" unicode="&#x17d;" horiz-adv-x="339" 
d="M286 850l-73 -112h-80l-73 112h70l44 -51l44 51h68zM25 0v76l182 532h-174v92h282v-75l-182 -533h182v-92h-290z" />
    <glyph glyph-name="zcaron" unicode="&#x17e;" horiz-adv-x="290" 
d="M260 711l-75 -134h-72l-75 134h65l47 -66l47 66h63zM16 0v66l156 386h-149v81h251v-67l-156 -385h155v-81h-257z" />
    <glyph glyph-name="Zdotaccent" unicode="&#x17b;" horiz-adv-x="339" 
d="M127 742v94h92v-94h-92zM25 0v76l182 532h-174v92h282v-75l-182 -533h182v-92h-290z" />
    <glyph glyph-name="zdotaccent" unicode="&#x17c;" horiz-adv-x="290" 
d="M16 0v66l156 386h-149v81h251v-67l-156 -385h155v-81h-257zM104 580v96h90v-96h-90z" />
    <glyph glyph-name="schwa" unicode="&#x259;" horiz-adv-x="349" 
d="M146 541c97 0 179 -89 179 -263v-21c0 -175 -72 -266 -157 -266c-88 0 -147 93 -147 266v52h209c-5 102 -47 143 -96 143c-35 0 -58 -13 -93 -37l-8 89c40 25 70 37 113 37zM231 233h-120c0 -99 21 -157 57 -157c35 0 60 49 63 157z" />
    <glyph glyph-name="germandbls" unicode="&#xdf;" horiz-adv-x="391" 
d="M186 -2v82c60 6 87 49 87 118v3c0 67 -27 111 -87 125v71c52 26 71 77 71 132v5c0 58 -23 90 -60 90c-40 0 -63 -41 -63 -114v-510h-95v506c0 122 58 202 161 202c94 0 149 -72 149 -162v-7c0 -83 -35 -136 -87 -167c65 -28 106 -81 106 -169v-7
c0 -119 -63 -194 -182 -198z" />
    <glyph glyph-name="zero" unicode="0" horiz-adv-x="387" 
d="M194 -9c-105 0 -165 99 -165 343v31c0 244 60 344 165 344c104 0 165 -99 165 -343v-31c0 -244 -61 -344 -165 -344zM194 81c38 0 67 52 67 254v30c0 201 -29 254 -67 254c-39 0 -68 -52 -68 -254v-30c0 -201 29 -254 68 -254z" />
    <glyph glyph-name="one" unicode="1" horiz-adv-x="239" 
d="M90 0v594l-73 -29v101l98 38h73v-704h-98z" />
    <glyph glyph-name="two" unicode="2" horiz-adv-x="331" 
d="M22 0v81l140 292c37 78 50 118 50 160c0 45 -26 81 -76 81c-38 0 -70 -15 -99 -34v97c32 17 69 32 119 32c92 0 153 -60 153 -160v-5c0 -59 -16 -112 -55 -193l-125 -254h180v-97h-287z" />
    <glyph glyph-name="three" unicode="3" horiz-adv-x="323" 
d="M116 -9c-42 0 -71 7 -99 18v94c28 -12 51 -19 89 -19c53 0 97 44 97 121v7c0 80 -50 114 -130 120v66l121 205h-171v97h274v-85l-126 -212c73 -22 130 -72 130 -184v-10c0 -136 -80 -218 -185 -218z" />
    <glyph glyph-name="three.alt" horiz-adv-x="323" 
d="M116 -9c-40 0 -73 7 -100 18v94c25 -11 55 -19 83 -19c65 0 106 45 106 117v3c0 75 -47 115 -132 118v82c76 6 129 53 129 123v2c0 54 -33 88 -86 88c-32 0 -61 -11 -90 -26v91c31 15 65 27 108 27c96 0 164 -61 164 -169v-4c0 -86 -49 -141 -106 -166
c63 -23 110 -77 110 -171v-4c0 -127 -79 -204 -186 -204z" />
    <glyph glyph-name="four" unicode="4" horiz-adv-x="373" 
d="M212 0v139h-196v75l192 489h95v-479h57v-85h-57v-139h-91zM97 224h115v300z" />
    <glyph glyph-name="five" unicode="5" horiz-adv-x="332" 
d="M122 -9c-37 0 -68 9 -90 18v97c22 -12 51 -21 81 -21c61 0 100 55 100 140v7c0 86 -35 116 -80 116c-21 0 -36 -4 -54 -11l-50 33l17 330h238v-94h-163l-10 -174c15 4 30 7 51 7c76 0 148 -56 148 -206v-8c0 -146 -78 -234 -188 -234z" />
    <glyph glyph-name="six" unicode="6" horiz-adv-x="364" 
d="M186 -9c-34 0 -64 10 -89 35c-43 43 -68 133 -68 284v27c0 285 80 372 190 372c35 0 57 -6 79 -15v-94c-20 10 -44 20 -71 20c-65 0 -102 -72 -104 -208c27 25 52 36 87 36c66 0 132 -53 132 -206v-16c0 -142 -67 -235 -156 -235zM187 79c40 0 63 52 63 143v16
c0 92 -30 127 -66 127c-25 0 -42 -12 -60 -29v-77c0 -135 28 -180 63 -180z" />
    <glyph glyph-name="seven" unicode="7" horiz-adv-x="324" 
d="M60 0l142 601h-182v99h277v-72l-140 -628h-97z" />
    <glyph glyph-name="eight" unicode="8" horiz-adv-x="359" 
d="M179 -9c-91 0 -157 76 -157 198v7c0 89 40 149 84 175c-46 29 -74 82 -74 154v6c0 112 68 178 147 178c80 0 147 -66 147 -178v-6c0 -72 -27 -125 -73 -154c43 -26 84 -86 84 -175v-7c0 -122 -66 -198 -158 -198zM179 402c34 0 56 44 56 115v5c0 76 -24 109 -56 109
c-31 0 -55 -33 -55 -109v-5c0 -71 22 -115 55 -115zM179 70c37 0 64 39 64 124v6c0 84 -28 125 -64 125c-35 0 -63 -41 -63 -125v-6c0 -85 26 -124 63 -124z" />
    <glyph glyph-name="nine" unicode="9" horiz-adv-x="364" 
d="M137 81c64 0 100 68 103 198c-28 -24 -54 -35 -86 -35c-67 0 -132 54 -132 213v12c0 149 66 240 156 240c34 0 64 -10 89 -34c43 -44 68 -133 68 -285v-27c0 -285 -80 -372 -190 -372c-35 0 -63 8 -89 18v94c24 -12 53 -22 81 -22zM180 327c24 0 42 12 60 29v85
c0 136 -28 180 -63 180c-40 0 -63 -51 -63 -148v-13c0 -98 28 -133 66 -133z" />
    <glyph glyph-name="period" unicode="." horiz-adv-x="198" 
d="M41 0v122h115v-122h-115z" />
    <glyph glyph-name="comma" unicode="," horiz-adv-x="198" 
d="M29 -144l-10 41c63 17 78 61 74 103h-52v122h115v-101c0 -93 -41 -148 -127 -165z" />
    <glyph glyph-name="colon" unicode=":" horiz-adv-x="208" 
d="M46 411v122h115v-122h-115zM46 0v122h115v-122h-115z" />
    <glyph glyph-name="semicolon" unicode=";" horiz-adv-x="208" 
d="M46 411v122h115v-122h-115zM34 -144l-10 41c63 17 78 61 74 103h-52v122h115v-101c0 -93 -41 -148 -127 -165z" />
    <glyph glyph-name="ellipsis" unicode="&#x2026;" horiz-adv-x="655" 
d="M491 0v123h116v-123h-116zM270 0v123h115v-123h-115zM48 0v123h116v-123h-116z" />
    <glyph glyph-name="periodcentered" unicode="&#xb7;" horiz-adv-x="212" 
d="M48 245v122h116v-122h-116z" />
    <glyph glyph-name="bullet" unicode="&#x2022;" horiz-adv-x="339" 
d="M169 215c-59 0 -102 44 -102 131v16c0 87 43 131 102 131s102 -44 102 -131v-16c0 -87 -43 -131 -102 -131z" />
    <glyph glyph-name="ampersand" unicode="&#x26;" horiz-adv-x="427" 
d="M350 -11l-40 74c-33 -43 -71 -72 -134 -72c-89 0 -159 77 -159 183v6c0 83 39 151 109 212c-42 69 -62 116 -62 165v6c0 79 54 146 137 146c81 0 132 -62 132 -143v-7c0 -78 -39 -134 -102 -189l78 -147c8 30 13 66 20 113l77 -13c-9 -78 -25 -136 -45 -184l61 -106z
M191 436c40 37 57 78 57 121v6c0 38 -19 66 -49 66c-31 0 -50 -28 -50 -64v-7c0 -33 12 -66 42 -122zM187 77c34 0 59 21 80 53l-100 191c-37 -39 -55 -89 -55 -134v-7c0 -60 30 -103 75 -103z" />
    <glyph glyph-name="exclam" unicode="!" horiz-adv-x="213" 
d="M82 208l-34 457v35h117v-35l-34 -457h-49zM49 0v122h115v-122h-115z" />
    <glyph glyph-name="exclamdown" unicode="&#xa1;" horiz-adv-x="213" 
d="M49 578v122h115v-122h-115zM48 0v35l34 458h49l34 -458v-35h-117z" />
    <glyph glyph-name="question" unicode="?" horiz-adv-x="315" 
d="M100 208l-10 174l5 6c62 21 105 62 105 130v2c0 57 -40 94 -91 94c-33 0 -61 -10 -88 -25v90c30 15 60 26 106 26c100 0 170 -74 170 -175v-8c0 -101 -56 -154 -121 -185l-12 -129h-64zM78 0v122h114v-122h-114z" />
    <glyph glyph-name="questiondown" unicode="&#xbf;" horiz-adv-x="315" 
d="M123 578v122h114v-122h-114zM188 -5c-100 0 -170 75 -170 175v8c0 101 56 155 121 185l12 130h64l10 -175l-5 -5c-62 -22 -105 -63 -105 -131v-2c0 -56 40 -94 91 -94c33 0 61 10 88 25v-90c-30 -15 -60 -26 -106 -26z" />
    <glyph glyph-name="quotedblleft" unicode="&#x201c;" horiz-adv-x="375" 
d="M213 435v102c0 93 41 149 127 165l10 -41c-63 -17 -78 -61 -74 -103h52v-123h-115zM41 435v102c0 93 41 149 127 165l10 -41c-63 -17 -78 -61 -74 -103h52v-123h-115z" />
    <glyph glyph-name="quotedblright" unicode="&#x201d;" horiz-adv-x="375" 
d="M207 434l-11 42c64 16 79 60 74 102h-51v122h115v-101c0 -93 -41 -148 -127 -165zM35 434l-11 42c64 16 79 60 74 102h-51v122h115v-101c0 -93 -41 -148 -127 -165z" />
    <glyph glyph-name="quoteleft" unicode="&#x2018;" horiz-adv-x="203" 
d="M41 435v102c0 93 41 149 127 165l10 -41c-63 -17 -78 -61 -74 -103h52v-123h-115z" />
    <glyph glyph-name="quoteright" unicode="&#x2019;" horiz-adv-x="203" 
d="M35 434l-11 42c64 16 79 60 74 102h-51v122h115v-101c0 -93 -41 -148 -127 -165z" />
    <glyph glyph-name="quotedblbase" unicode="&#x201e;" horiz-adv-x="399" 
d="M215 -144l-10 41c69 17 87 61 82 103h-51v122h115v-101c0 -93 -42 -148 -136 -165zM36 -144l-10 41c69 17 87 61 82 103h-51v122h115v-101c0 -93 -42 -148 -136 -165z" />
    <glyph glyph-name="quotesinglbase" unicode="&#x201a;" horiz-adv-x="220" 
d="M36 -144l-10 41c69 17 87 61 82 103h-51v122h115v-101c0 -93 -42 -148 -136 -165z" />
    <glyph glyph-name="guillemotleft" unicode="&#xab;" horiz-adv-x="420" 
d="M163 43l-137 217v8l137 217l66 -38l-100 -182l102 -182zM328 43l-138 217v8l138 217l66 -38l-100 -182l102 -182z" />
    <glyph glyph-name="guillemotright" unicode="&#xbb;" horiz-adv-x="420" 
d="M257 485l137 -217v-8l-137 -217l-67 38l101 182l-103 182zM92 485l137 -217v-8l-137 -217l-66 38l100 182l-102 182z" />
    <glyph glyph-name="guilsinglleft" unicode="&#x2039;" horiz-adv-x="255" 
d="M163 43l-137 217v8l137 217l66 -38l-100 -182l102 -182z" />
    <glyph glyph-name="guilsinglright" unicode="&#x203a;" horiz-adv-x="255" 
d="M92 485l137 -217v-8l-137 -217l-66 38l100 182l-102 182z" />
    <glyph glyph-name="hyphen" unicode="-" horiz-adv-x="316" 
d="M39 258v96h237v-96h-237z" />
    <glyph glyph-name="endash" unicode="&#x2013;" horiz-adv-x="439" 
d="M39 259v94h360v-94h-360z" />
    <glyph glyph-name="emdash" unicode="&#x2014;" horiz-adv-x="645" 
d="M39 259v94h567v-94h-567z" />
    <glyph glyph-name="underscore" unicode="_" horiz-adv-x="452" 
d="M-2 -153v75h456v-75h-456z" />
    <glyph glyph-name="slash" unicode="/" horiz-adv-x="294" 
d="M-8 -98l219 866h81l-219 -866h-81z" />
    <glyph glyph-name="backslash" unicode="\" horiz-adv-x="294" 
d="M220 -98l-218 866h80l219 -866h-81z" />
    <glyph glyph-name="bar" unicode="|" horiz-adv-x="239" 
d="M82 -98v866h76v-866h-76z" />
    <glyph glyph-name="parenleft" unicode="(" horiz-adv-x="280" 
d="M256 -138c-148 56 -216 220 -216 427c0 205 68 369 216 426v-72c-84 -55 -124 -182 -124 -354c0 -173 40 -301 124 -355v-72z" />
    <glyph glyph-name="parenright" unicode=")" horiz-adv-x="280" 
d="M23 -138v72c85 54 125 182 125 355c0 172 -40 299 -125 354v72c149 -57 217 -221 217 -426c0 -207 -68 -371 -217 -427z" />
    <glyph glyph-name="bracketleft" unicode="[" horiz-adv-x="276" 
d="M67 -130v830h179v-69h-94v-692h94v-69h-179z" />
    <glyph glyph-name="bracketright" unicode="]" horiz-adv-x="276" 
d="M30 -130v69h95v692h-95v69h179v-830h-179z" />
    <glyph glyph-name="braceleft" unicode="{" horiz-adv-x="298" 
d="M270 -140c-120 4 -173 67 -173 153c0 55 31 91 31 153c0 48 -31 84 -89 84h-16v76h16c57 0 89 36 89 83c0 63 -31 98 -31 157c0 81 53 146 173 149v-65c-49 -1 -88 -32 -88 -83c0 -63 33 -97 33 -157c0 -65 -42 -112 -112 -122c70 -12 112 -57 112 -123
c0 -59 -33 -93 -33 -157c0 -51 39 -81 88 -82v-66z" />
    <glyph glyph-name="braceright" unicode="}" horiz-adv-x="298" 
d="M28 -140v66c48 1 88 31 88 83c0 63 -34 97 -34 156c0 66 43 113 112 123c-69 11 -112 57 -112 123c0 59 34 93 34 156c0 51 -40 82 -88 83v65c119 -3 173 -66 173 -152c0 -55 -31 -91 -31 -153c0 -48 30 -84 89 -84h16v-76h-16c-57 0 -89 -36 -89 -84
c0 -62 31 -97 31 -156c0 -81 -54 -146 -173 -150z" />
    <glyph glyph-name="at" unicode="@" horiz-adv-x="635" 
d="M298 -136c-151 0 -270 116 -269 350c1 255 124 496 330 496c151 0 246 -139 246 -308c0 -167 -59 -332 -164 -332c-60 0 -88 39 -90 89c-27 -51 -60 -88 -105 -88c-47 0 -85 43 -85 122c0 164 70 314 152 314c44 0 66 -35 74 -74l12 64l79 -14l-46 -255
c-4 -22 -6 -42 -6 -67c0 -31 10 -48 32 -48c60 0 107 147 107 292s-74 268 -209 268c-179 0 -288 -234 -288 -461c-1 -204 96 -311 234 -311c55 0 100 12 147 40l19 -31c-54 -32 -100 -46 -170 -46zM279 142c10 0 19 5 29 15c36 36 61 145 61 209c0 43 -16 65 -39 65
c-10 0 -19 -5 -28 -14c-39 -39 -59 -154 -59 -217c0 -40 14 -58 36 -58z" />
    <glyph glyph-name="copyright" unicode="&#xa9;" horiz-adv-x="522" 
d="M261 -10c-141 0 -237 139 -237 343v34c0 205 96 343 237 343c142 0 237 -138 237 -343v-34c0 -204 -95 -343 -237 -343zM261 23c127 0 203 128 203 309v36c0 181 -76 310 -203 310s-203 -129 -203 -310v-36c0 -181 76 -309 203 -309zM271 151c-60 0 -107 58 -107 192v16
c0 134 49 191 111 191c19 0 30 -2 44 -9v-62c-15 8 -26 13 -38 13c-33 0 -58 -33 -58 -132v-19c0 -102 25 -132 58 -132c11 0 24 4 39 14v-59c-15 -9 -30 -13 -49 -13z" />
    <glyph glyph-name="published" unicode="&#x2117;" horiz-adv-x="522" 
d="M261 -10c-141 0 -237 139 -237 343v34c0 205 96 343 237 343c142 0 237 -138 237 -343v-34c0 -204 -95 -343 -237 -343zM261 23c127 0 203 128 203 309v36c0 181 -76 310 -203 310s-203 -129 -203 -310v-36c0 -181 76 -309 203 -309zM189 164v385h59
c70 0 120 -40 120 -127v-2c0 -84 -48 -127 -115 -130h-7v-126h-57zM246 343h8c34 2 56 25 56 75v1c0 52 -21 76 -56 76h-8v-152z" />
    <glyph glyph-name="registered.alt" horiz-adv-x="522" 
d="M261 -10c-141 0 -237 139 -237 343v34c0 205 96 343 237 343c142 0 237 -138 237 -343v-34c0 -204 -95 -343 -237 -343zM261 23c127 0 203 128 203 309v36c0 181 -76 310 -203 310s-203 -129 -203 -310v-36c0 -181 76 -309 203 -309zM176 164v385h67c34 0 64 -10 84 -30
c21 -21 32 -50 32 -91v-4c0 -51 -21 -84 -50 -102l57 -158h-61l-49 139h-23v-139h-57zM233 355h11c34 0 57 20 57 69v3c0 51 -25 68 -59 68h-9v-140z" />
    <glyph glyph-name="registered" unicode="&#xae;" horiz-adv-x="312" 
d="M156 355c-75 0 -127 70 -127 173v16c0 103 52 173 127 173s127 -70 127 -173v-16c0 -103 -52 -173 -127 -173zM156 377c65 0 104 63 104 151v16c0 88 -39 152 -104 152s-104 -64 -104 -152v-16c0 -88 39 -151 104 -151zM110 443v192h39c38 0 61 -22 61 -60v-2
c0 -26 -12 -43 -27 -52l31 -78h-33l-27 68h-14v-68h-30zM140 539h9c17 0 30 11 30 34v1c0 24 -13 32 -30 32h-9v-67z" />
    <glyph glyph-name="servicemark" unicode="&#x2120;" horiz-adv-x="433" 
d="M200 385v315h58l40 -120l40 120h58v-315h-52v211l-45 -136h-2l-44 136v-211h-53zM84 383c-22 0 -44 5 -61 14v56c20 -12 39 -20 56 -20s29 11 29 29c0 16 -6 28 -31 55c-39 41 -57 62 -57 104c0 49 35 81 79 81c22 0 39 -3 53 -11v-56c-17 10 -33 16 -48 16
c-16 0 -28 -11 -28 -28c0 -16 6 -25 31 -52c42 -45 57 -68 57 -107c0 -49 -36 -81 -80 -81z" />
    <glyph glyph-name="trademark" unicode="&#x2122;" horiz-adv-x="418" 
d="M185 385v315h59l39 -120l40 120h58v-315h-52v211l-45 -136h-2l-44 136v-211h-53zM54 385v263h-42v52h139v-52h-43v-263h-54z" />
    <glyph glyph-name="asterisk" unicode="*" horiz-adv-x="292" 
d="M113 405l15 114l-77 -65l-34 58l92 41l-92 41l34 58l77 -65l-15 114h66l-15 -114l77 65l34 -58l-92 -41l92 -41l-34 -58l-77 65l15 -114h-66z" />
    <glyph glyph-name="dagger" unicode="&#x2020;" horiz-adv-x="236" 
d="M84 238l11 277l-77 -10v69l77 -11l-14 137h74l-13 -137l76 11v-69l-77 10l11 -277h-68z" />
    <glyph glyph-name="daggerdbl" unicode="&#x2021;" horiz-adv-x="256" 
d="M90 0l15 136l-77 -10v69l77 -11l-13 166l13 165l-77 -10v69l77 -11l-14 137h74l-13 -137l76 11v-69l-77 10l13 -165l-13 -166l77 11v-69l-76 10l13 -136h-75z" />
    <glyph glyph-name="dollar" unicode="$" horiz-adv-x="347" 
d="M299 679v-101c-39 24 -65 35 -99 35c-43 0 -76 -31 -76 -80v-1c0 -44 20 -69 76 -127l1 -1c96 -96 124 -149 124 -227v-1c0 -89 -49 -155 -120 -175v-106h-65v101c-40 2 -74 12 -106 29v102c44 -27 74 -40 113 -40c51 0 80 35 80 90c0 38 -15 76 -76 134l-1 1
c-85 81 -124 130 -124 218c0 84 45 146 114 167v75h65v-67c37 -2 67 -13 94 -26z" />
    <glyph glyph-name="sterling" unicode="&#xa3;" horiz-adv-x="342" 
d="M25 0v63l49 22v209h-48v89h48v129c0 71 15 119 50 154c27 26 66 42 111 42c33 0 53 -5 71 -10v-96c-14 5 -34 10 -55 10c-23 0 -40 -6 -54 -20c-18 -18 -24 -46 -24 -79v-130h105v-89h-105v-205h155v-89h-303z" />
    <glyph glyph-name="Euro" unicode="&#x20ac;" horiz-adv-x="373" 
d="M344 692v-103c-25 15 -45 23 -68 23c-47 0 -86 -41 -101 -142h118v-73h-124c-1 -11 -1 -23 -1 -34v-25v-30h125v-74h-119c14 -109 54 -146 104 -146c20 0 44 7 69 23v-98c-26 -16 -52 -21 -87 -21c-91 0 -165 75 -186 242h-60v74h54v30v24c0 11 0 23 1 35h-55v73h61
c23 165 101 238 193 238c33 0 52 -4 76 -16z" />
    <glyph glyph-name="yen" unicode="&#xa5;" horiz-adv-x="384" 
d="M54 257v75h72l-117 368h99l85 -306l85 306h98l-118 -368h72v-75h-90v-72h90v-75h-90v-110h-96v110h-90v75h90v72h-90z" />
    <glyph glyph-name="cent" unicode="&#xa2;" horiz-adv-x="297" 
d="M206 704v-79c24 -1 41 -6 59 -15v-98c-20 12 -41 22 -64 22c-44 0 -76 -44 -76 -168v-30c0 -122 31 -167 77 -167c20 0 43 10 64 24v-94c-20 -11 -38 -19 -60 -21v-84h-66v91c-69 25 -112 108 -112 253v26c0 143 45 226 112 252v88h66z" />
    <glyph glyph-name="baht" unicode="&#xe3f;" horiz-adv-x="386" 
d="M202 789h66l-13 -111c60 -26 101 -77 101 -155v-4c0 -94 -54 -139 -111 -161c67 -24 119 -70 119 -161v-7c0 -108 -74 -174 -185 -188l-14 -124h-66l14 122h-71v700h98c17 0 34 -1 50 -4zM139 91h8c70 0 118 38 118 106v5c0 69 -46 108 -116 108h-10v-219zM139 396h8
c70 0 112 39 112 109v2c0 68 -43 102 -107 102h-13v-213z" />
    <glyph glyph-name="colonmonetary" unicode="&#x20a1;" horiz-adv-x="342" 
d="M263 779h36l-8 -83c9 -3 17 -7 27 -11v-103c-26 16 -47 27 -74 27c-65 0 -112 -65 -112 -247v-24c0 -189 48 -247 114 -247c24 0 50 11 74 27v-98c-26 -16 -53 -25 -91 -25c-4 0 -8 0 -12 1l-13 -114h-36l14 119c-19 6 -36 15 -52 28l-16 -147h-36l20 181
c-41 55 -66 145 -66 276v22c0 187 54 291 132 328l9 90h36l-8 -78c12 3 24 4 36 4c6 0 13 0 18 -1z" />
    <glyph glyph-name="florin" unicode="&#x192;" horiz-adv-x="330" 
d="M61 -5c-22 0 -38 3 -51 6v87c9 -2 18 -4 31 -4c25 0 43 16 46 58l19 228h-48v78h54l10 118c7 91 56 139 129 139c32 0 52 -4 67 -9v-88c-12 4 -26 8 -44 8c-32 0 -54 -21 -58 -68l-9 -100h87v-78h-92l-20 -240c-8 -97 -52 -135 -121 -135z" />
    <glyph glyph-name="naira" unicode="&#x20a6;" horiz-adv-x="516" 
d="M503 207h-74v-207h-95l-71 215h-1l-79 240v-455h-96v207h-74v83h74v124h-74v83h74v203h101l64 -194h1l80 -246v440h96v-203h74v-83h-74v-123h74v-84z" />
    <glyph glyph-name="peso" unicode="&#x20b1;" horiz-adv-x="478" 
d="M77 0v420h-74v84h74v196h100c120 0 204 -65 216 -196h76v-84h-77c-16 -120 -94 -185 -207 -191h-9v-229h-99zM186 320c66 2 111 51 111 144v2c0 97 -43 143 -109 143h-12v-289h10z" />
    <glyph glyph-name="R_p" horiz-adv-x="694" 
d="M35 0v700h105c112 0 191 -69 191 -219v-7c0 -93 -33 -153 -84 -188l95 -286h-100l-84 256h-31v-256h-92zM380 -130v664h89v-75c17 38 42 84 92 84c62 0 111 -71 111 -257v-39c0 -184 -49 -256 -111 -256c-50 0 -75 44 -92 82v-203h-89zM525 77c35 0 53 61 53 171v37
c0 110 -18 172 -53 172c-34 0 -57 -61 -57 -171v-39c0 -109 23 -170 57 -170zM127 340h15c57 0 97 42 97 135v6c0 98 -44 132 -102 132h-10v-273z" />
    <glyph glyph-name="rupee" unicode="&#x20a8;" horiz-adv-x="615" 
d="M35 0v700h105c112 0 191 -69 191 -219v-7c0 -93 -33 -153 -84 -188l95 -286h-100l-84 256h-31v-256h-92zM470 -9c-35 0 -71 8 -104 24v89c38 -19 70 -30 100 -30s53 22 53 55v2c0 29 -11 53 -64 106c-60 59 -90 102 -90 165v2c0 84 55 136 136 136c32 0 56 -3 85 -13v-90
c-27 13 -54 20 -81 20c-31 0 -52 -20 -52 -50v-2c0 -27 10 -47 66 -104c66 -66 87 -106 87 -166v-2c0 -87 -59 -142 -136 -142zM127 340h15c57 0 97 42 97 135v6c0 98 -44 132 -102 132h-10v-273z" />
    <glyph glyph-name="won" unicode="&#x20a9;" horiz-adv-x="665" 
d="M612 700l-30 -203h80v-83h-92l-17 -123h109v-84h-121l-30 -209h-105l-36 237l-37 249h-1l-38 -249l-35 -237h-106l-30 209h-120v83h108l-18 124h-90v83h78l-29 203h101l25 -216l32 -280h1l43 283l32 213h96l31 -215h1l41 -281h1l33 282l25 214h98z" />
    <glyph glyph-name="sheqel" unicode="&#x20aa;" horiz-adv-x="437" 
d="M157 139l-17 191h53l15 -147c6 -59 23 -86 63 -86h58v431h69v-528h-129c-64 0 -103 43 -112 139zM235 344c0 59 -18 87 -55 87h-72v-431h-69v528h154c56 0 96 -46 96 -133v-194h-54v143z" />
    <glyph glyph-name="numbersign" unicode="#" horiz-adv-x="380" 
d="M346 255v-87h-68l-14 -168h-64l14 168h-78l-14 -168h-65l14 168h-55v87h62l16 192h-60v88h68l14 165h64l-14 -165h79l14 165h64l-14 -165h56v-88h-64l-16 -192h61zM159 447l-16 -192h78l16 192h-78z" />
    <glyph glyph-name="paragraph" unicode="&#xb6;" horiz-adv-x="350" 
d="M205 0v234c-102 7 -189 83 -189 233v2c0 161 96 231 222 231h66v-700h-99z" />
    <glyph glyph-name="section" unicode="&#xa7;" horiz-adv-x="394" 
d="M284 218c28 -27 40 -56 40 -92v-2c0 -79 -61 -133 -146 -133c-38 0 -63 6 -91 17v92c32 -15 61 -23 87 -23c36 0 57 21 57 47v2c0 31 -22 48 -91 88c-73 42 -121 76 -121 145v2c0 47 30 94 93 121c-29 27 -41 56 -41 92v2c0 79 61 133 147 133c37 0 62 -6 90 -17v-91
c-32 15 -61 22 -86 22c-37 0 -58 -21 -58 -47v-2c0 -31 22 -48 91 -88c73 -42 122 -76 122 -145v-2c0 -47 -31 -94 -93 -121zM234 260c37 21 50 47 50 68v2c0 27 -14 49 -104 99l-19 11c-37 -21 -50 -47 -50 -68v-2c0 -27 14 -49 104 -99z" />
    <glyph glyph-name="ordfeminine" unicode="&#xaa;" horiz-adv-x="250" 
d="M98 402c-34 0 -59 34 -59 88v8c0 63 27 93 68 93c14 0 27 -4 41 -11v21c0 32 -16 50 -44 50c-17 0 -34 -6 -51 -14v53c19 9 37 13 61 13c31 0 55 -10 70 -30c12 -16 19 -40 19 -68v-198h-56v33c-12 -24 -28 -38 -49 -38zM35 308v42h180v-42h-180zM118 450
c16 0 30 16 30 41v49c-7 3 -18 7 -27 7c-18 0 -29 -16 -29 -46v-6c0 -31 10 -45 26 -45z" />
    <glyph glyph-name="ordmasculine" unicode="&#xba;" horiz-adv-x="250" 
d="M125 402c-53 0 -89 52 -89 143v16c0 91 36 143 89 143s89 -52 89 -143v-16c0 -91 -36 -143 -89 -143zM39 308v42h173v-42h-173zM125 451c23 0 33 36 33 94v17c0 58 -10 93 -33 93s-33 -35 -33 -93v-17c0 -58 10 -94 33 -94z" />
    <glyph glyph-name="degree" unicode="&#xb0;" horiz-adv-x="266" 
d="M133 374c-64 0 -108 63 -108 161v11c0 97 44 161 108 161s108 -64 108 -161v-11c0 -98 -44 -161 -108 -161zM133 438c26 0 44 28 44 97v11c0 68 -18 97 -44 97c-25 0 -43 -29 -43 -97v-11c0 -69 18 -97 43 -97z" />
    <glyph glyph-name="percent" unicode="%" horiz-adv-x="549" 
d="M135 344c-64 0 -109 65 -109 172v18c0 107 45 172 109 172s109 -65 109 -172v-18c0 -107 -45 -172 -109 -172zM135 638c-25 0 -41 -30 -41 -105v-16c0 -75 16 -105 41 -105s41 30 41 105v16c0 75 -16 105 -41 105zM251 362l155 338h61l-168 -362l-155 -338h-61zM414 -6
c-64 0 -109 65 -109 172v18c0 107 45 172 109 172s109 -65 109 -172v-18c0 -107 -45 -172 -109 -172zM414 62c25 0 41 30 41 105v16c0 75 -16 105 -41 105s-41 -30 -41 -105v-16c0 -75 16 -105 41 -105z" />
    <glyph glyph-name="perthousand" unicode="&#x2030;" horiz-adv-x="806" 
d="M135 412c25 0 41 30 41 105v16c0 75 -16 105 -41 105s-41 -30 -41 -105v-16c0 -75 16 -105 41 -105zM135 344c-64 0 -109 65 -109 172v18c0 107 45 172 109 172s109 -65 109 -172v-18c0 -107 -45 -172 -109 -172zM467 700l-168 -362l-155 -338h-61l168 362l155 338h61z
M414 62c25 0 41 30 41 105v16c0 75 -16 105 -41 105s-41 -30 -41 -105v-16c0 -75 16 -105 41 -105zM414 -6c-64 0 -109 65 -109 172v18c0 107 45 172 109 172s109 -65 109 -172v-18c0 -107 -45 -172 -109 -172zM671 62c25 0 41 30 41 105v16c0 75 -16 105 -41 105
c-24 0 -40 -30 -40 -105v-16c0 -75 16 -105 40 -105zM671 -6c-64 0 -109 65 -109 172v18c0 107 45 172 109 172s110 -65 110 -172v-18c0 -107 -46 -172 -110 -172z" />
    <glyph glyph-name="quotedbl" unicode="&#x22;" horiz-adv-x="311" 
d="M192 404v296h99v-9l-63 -287h-36zM45 404v296h99v-9l-63 -287h-36z" />
    <glyph glyph-name="quotesingle" unicode="'" horiz-adv-x="161" 
d="M45 404v296h99v-9l-63 -287h-36z" />
    <glyph glyph-name="plus" unicode="+" horiz-adv-x="368" 
d="M140 183v123h-116v92h116v123h89v-123h115v-92h-115v-123h-89z" />
    <glyph glyph-name="minus" unicode="&#x2212;" horiz-adv-x="368" 
d="M343 303h-317v98h317v-98z" />
    <glyph glyph-name="divide" unicode="&#xf7;" horiz-adv-x="368" 
d="M136 454v102h96v-102h-96zM343 307h-317v90h317v-90zM136 148v102h96v-102h-96z" />
    <glyph glyph-name="equal" unicode="=" horiz-adv-x="368" 
d="M27 392v96h314v-96h-314zM27 216v96h314v-96h-314z" />
    <glyph glyph-name="multiply" unicode="&#xd7;" horiz-adv-x="368" 
d="M272 185l-88 102l-89 -102l-69 56l100 111l-100 111l70 56l88 -102l89 102l69 -56l-100 -111l100 -111z" />
    <glyph glyph-name="less" unicode="&#x3c;" horiz-adv-x="368" 
d="M329 129l-297 179v88l297 180v-114l-197 -109l197 -109v-115z" />
    <glyph glyph-name="greater" unicode="&#x3e;" horiz-adv-x="368" 
d="M39 129v113l196 109l-196 109v116l297 -180v-88z" />
    <glyph glyph-name="plusminus" unicode="&#xb1;" horiz-adv-x="368" 
d="M344 306h-115v-123h-89v123h-116v92h116v123h89v-123h115v-92zM343 29h-317v87h317v-87z" />
    <glyph glyph-name="onehalf" unicode="&#xbd;" horiz-adv-x="495" 
d="M275 0v51l87 129c21 33 33 53 33 74c0 25 -17 39 -40 39c-25 0 -47 -14 -72 -41v67c19 18 46 35 83 35c54 0 95 -33 95 -92c0 -28 -9 -56 -38 -98l-69 -103h106v-61h-185zM145 351h-66v281l-57 -28v64l74 34h49v-351zM51 0l148 362l134 338h54l-148 -362l-134 -338h-54z
" />
    <glyph glyph-name="onehalf.alt" horiz-adv-x="540" 
d="M213 351h-187v56h66v228l-65 -29v63l80 34h49v-296h57v-56zM332 0v51l87 129c21 33 33 53 33 74c0 25 -17 39 -40 39c-25 0 -47 -14 -72 -41v67c19 18 46 35 83 35c54 0 95 -33 95 -92c0 -28 -9 -56 -38 -98l-69 -103h106v-61h-185zM109 0l148 362l134 338h54l-148 -362
l-134 -338h-54z" />
    <glyph glyph-name="onethird" unicode="&#x2153;" horiz-adv-x="495" 
d="M367 -5c-35 0 -61 14 -75 25v62c15 -15 42 -28 68 -28c31 0 54 16 54 50c0 32 -29 49 -84 50h-2v44l70 92h-105v59h183v-47l-81 -100c46 -10 83 -38 83 -97c0 -68 -47 -110 -111 -110zM144 351h-66v281l-57 -28v64l74 34h49v-351zM50 0l148 362l134 338h54l-148 -362
l-134 -338h-54z" />
    <glyph glyph-name="onethird.alt" horiz-adv-x="540" 
d="M213 351h-187v56h66v228l-65 -29v63l80 34h49v-296h57v-56zM412 -5c-35 0 -61 14 -75 25v62c15 -15 42 -28 68 -28c31 0 54 16 54 50c0 32 -29 49 -84 50h-2v44l70 92h-105v59h183v-47l-81 -100c46 -10 83 -38 83 -97c0 -68 -47 -110 -111 -110zM104 0l148 362l134 338
h54l-148 -362l-134 -338h-54z" />
    <glyph glyph-name="twothirds" unicode="&#x2154;" horiz-adv-x="540" 
d="M419 -5c-35 0 -61 14 -75 25v62c15 -15 42 -28 68 -28c31 0 54 16 54 50c0 32 -29 49 -84 50h-2v44l70 92h-105v59h183v-47l-81 -100c46 -10 83 -38 83 -97c0 -68 -47 -110 -111 -110zM23 351v52l87 128c21 34 33 53 33 74c0 25 -17 39 -40 39c-25 0 -47 -14 -72 -41v67
c19 18 46 35 83 35c54 0 95 -33 95 -92c0 -28 -9 -56 -38 -98l-69 -103h106v-61h-185zM102 0l148 362l134 338h54l-148 -362l-134 -338h-54z" />
    <glyph glyph-name="onequarter" unicode="&#xbc;" horiz-adv-x="495" 
d="M145 351h-66v281l-57 -28v64l74 34h49v-351zM70 0l148 362l134 338h54l-148 -362l-134 -338h-54zM440 66v-66h-57v66h-123v54l97 231h83v-230h29v-55h-29zM385 121v155h-6l-65 -155h71z" />
    <glyph glyph-name="onequarter.alt" horiz-adv-x="540" 
d="M218 351h-187v56h66v228l-65 -29v63l80 34h49v-296h57v-56zM119 0l148 362l134 338h54l-148 -362l-134 -338h-54zM490 66v-66h-57v66h-123v54l97 231h83v-230h29v-55h-29zM435 121v155h-6l-65 -155h71z" />
    <glyph glyph-name="threequarters" unicode="&#xbe;" horiz-adv-x="540" 
d="M106 347c-35 0 -61 13 -75 24v62c15 -15 42 -28 68 -28c31 0 54 17 54 50c0 32 -29 49 -84 50h-2v44l70 92h-105v59h183v-47l-81 -100c46 -10 83 -37 83 -96c0 -69 -47 -110 -111 -110zM116 0l148 362l134 338h54l-148 -362l-134 -338h-54zM491 66v-66h-57v66h-123v54
l97 231h83v-230h29v-55h-29zM436 121v155h-6l-65 -155h71z" />
    <glyph glyph-name="onefifth" unicode="&#x2155;" horiz-adv-x="495" 
d="M357 -5c-29 0 -58 10 -76 24v62c17 -15 43 -27 69 -27c34 0 54 23 54 58s-21 51 -48 51c-15 0 -28 -4 -39 -10l-37 17l13 179h160v-59h-109l-6 -74c10 2 20 4 32 4c53 0 99 -32 99 -106c0 -75 -50 -119 -112 -119zM47 0l148 362l134 338h54l-148 -362l-134 -338h-54z
M145 351h-66v281l-57 -28v64l74 34h49v-351z" />
    <glyph glyph-name="onefifth.alt" horiz-adv-x="540" 
d="M412 -5c-29 0 -58 10 -76 24v62c17 -15 43 -27 69 -27c34 0 54 23 54 58s-21 51 -48 51c-15 0 -28 -4 -39 -10l-37 17l13 179h160v-59h-109l-6 -74c10 2 20 4 32 4c53 0 99 -32 99 -106c0 -75 -50 -119 -112 -119zM109 0l148 362l134 338h54l-148 -362l-134 -338h-54z
M213 351h-187v56h66v228l-65 -29v63l80 34h49v-296h57v-56z" />
    <glyph glyph-name="twofifths" unicode="&#x2156;" horiz-adv-x="540" 
d="M417 -5c-29 0 -58 10 -76 24v62c17 -15 43 -27 69 -27c34 0 54 23 54 58s-21 51 -48 51c-15 0 -28 -4 -39 -10l-37 17l13 179h160v-59h-109l-6 -74c10 2 20 4 32 4c53 0 99 -32 99 -106c0 -75 -50 -119 -112 -119zM23 351v52l87 128c21 34 33 53 33 74
c0 25 -17 39 -40 39c-25 0 -47 -14 -72 -41v67c19 18 46 35 83 35c54 0 95 -33 95 -92c0 -28 -9 -56 -38 -98l-69 -103h106v-61h-185zM107 0l148 362l134 338h54l-148 -362l-134 -338h-54z" />
    <glyph glyph-name="threefifths" unicode="&#x2157;" horiz-adv-x="540" 
d="M417 -5c-29 0 -58 10 -76 24v62c17 -15 43 -27 69 -27c34 0 54 23 54 58s-21 51 -48 51c-15 0 -28 -4 -39 -10l-37 17l13 179h160v-59h-109l-6 -74c10 2 20 4 32 4c53 0 99 -32 99 -106c0 -75 -50 -119 -112 -119zM106 347c-35 0 -61 13 -75 24v62c15 -15 42 -28 68 -28
c31 0 54 17 54 50c0 32 -29 49 -84 50h-2v44l70 92h-105v59h183v-47l-81 -100c46 -10 83 -37 83 -96c0 -69 -47 -110 -111 -110zM99 0l148 362l134 338h54l-148 -362l-134 -338h-54z" />
    <glyph glyph-name="fourfifths" unicode="&#x2158;" horiz-adv-x="540" 
d="M188 418v-67h-57v67h-123v53l97 231h83v-230h29v-54h-29zM417 -5c-29 0 -58 10 -76 24v62c17 -15 43 -27 69 -27c34 0 54 23 54 58s-21 51 -48 51c-15 0 -28 -4 -39 -10l-37 17l13 179h160v-59h-109l-6 -74c10 2 20 4 32 4c53 0 99 -32 99 -106c0 -75 -50 -119 -112 -119
zM101 0l148 362l134 338h54l-148 -362l-134 -338h-54zM133 472v155h-6l-65 -155h71z" />
    <glyph glyph-name="onesixth" unicode="&#x2159;" horiz-adv-x="495" 
d="M365 -5c-22 0 -44 7 -60 24c-24 22 -38 66 -38 136v13c0 139 51 186 117 186c24 0 42 -7 55 -15l-3 -62c-13 10 -29 19 -48 19c-33 0 -54 -28 -57 -84c12 8 26 16 50 16c40 0 81 -27 81 -111c0 -77 -43 -122 -97 -122zM366 52c21 0 36 19 36 62c0 44 -16 60 -38 60
c-14 0 -25 -6 -34 -15v-28c0 -61 14 -79 36 -79zM145 351h-66v281l-57 -28v64l74 34h49v-351zM54 0l148 362l134 338h54l-148 -362l-134 -338h-54z" />
    <glyph glyph-name="onesixth.alt" horiz-adv-x="540" 
d="M213 351h-187v56h66v228l-65 -29v63l80 34h49v-296h57v-56zM429 -5c-22 0 -44 7 -60 24c-24 22 -38 66 -38 136v13c0 139 51 186 117 186c24 0 42 -7 55 -15l-3 -62c-13 10 -29 19 -48 19c-33 0 -54 -28 -57 -84c12 8 26 16 50 16c40 0 81 -27 81 -111
c0 -77 -43 -122 -97 -122zM430 52c21 0 36 19 36 62c0 44 -16 60 -38 60c-14 0 -25 -6 -34 -15v-28c0 -61 14 -79 36 -79zM114 0l148 362l134 338h54l-148 -362l-134 -338h-54z" />
    <glyph glyph-name="fivesixths" unicode="&#x215a;" horiz-adv-x="540" 
d="M420 -5c-22 0 -44 7 -60 24c-24 22 -38 66 -38 136v13c0 139 51 186 117 186c24 0 42 -7 55 -15l-3 -62c-13 10 -29 19 -48 19c-33 0 -54 -28 -57 -84c12 8 26 16 50 16c40 0 81 -27 81 -111c0 -77 -43 -122 -97 -122zM106 347c-29 0 -58 9 -76 23v62
c17 -15 43 -27 69 -27c34 0 54 23 54 58s-21 51 -48 51c-15 0 -28 -4 -39 -9l-37 16l13 179h160v-58h-109l-6 -75c10 3 20 4 32 4c53 0 99 -32 99 -106c0 -75 -50 -118 -112 -118zM99 0l148 362l134 338h54l-148 -362l-134 -338h-54zM421 52c21 0 36 19 36 62
c0 44 -16 60 -38 60c-14 0 -25 -6 -34 -15v-28c0 -61 14 -79 36 -79z" />
    <glyph glyph-name="oneeighth" unicode="&#x215b;" horiz-adv-x="495" 
d="M364 -5c-62 0 -102 39 -102 101c0 43 21 73 47 87c-24 15 -40 43 -40 77c0 59 41 94 95 94s95 -35 95 -94c0 -34 -16 -62 -40 -77c26 -14 47 -44 47 -87c0 -62 -40 -101 -102 -101zM364 305c-23 0 -36 -17 -36 -47c0 -31 13 -49 36 -49s36 18 36 49c0 30 -13 47 -36 47z
M364 156c-24 0 -40 -19 -40 -57c0 -35 15 -55 40 -55s40 20 40 55c0 38 -16 57 -40 57zM145 351h-66v281l-57 -28v64l74 34h49v-351zM49 0l148 362l134 338h54l-148 -362l-134 -338h-54z" />
    <glyph glyph-name="oneeighth.alt" horiz-adv-x="540" 
d="M210 351h-187v56h66v228l-65 -29v63l80 34h49v-296h57v-56zM427 -5c-62 0 -102 39 -102 101c0 43 21 73 47 87c-24 15 -40 43 -40 77c0 59 41 94 95 94s95 -35 95 -94c0 -34 -16 -62 -40 -77c26 -14 47 -44 47 -87c0 -62 -40 -101 -102 -101zM427 305
c-23 0 -36 -17 -36 -47c0 -31 13 -49 36 -49s36 18 36 49c0 30 -13 47 -36 47zM427 156c-24 0 -40 -19 -40 -57c0 -35 15 -55 40 -55s40 20 40 55c0 38 -16 57 -40 57zM111 0l148 362l134 338h54l-148 -362l-134 -338h-54z" />
    <glyph glyph-name="threeeighths" unicode="&#x215c;" horiz-adv-x="540" 
d="M423 -5c-62 0 -102 39 -102 101c0 43 21 73 47 87c-24 15 -40 43 -40 77c0 59 41 94 95 94s95 -35 95 -94c0 -34 -16 -62 -40 -77c26 -14 47 -44 47 -87c0 -62 -40 -101 -102 -101zM423 305c-23 0 -36 -17 -36 -47c0 -31 13 -49 36 -49s36 18 36 49c0 30 -13 47 -36 47z
M423 156c-24 0 -40 -19 -40 -57c0 -35 15 -55 40 -55s40 20 40 55c0 38 -16 57 -40 57zM99 0l148 362l134 338h54l-148 -362l-134 -338h-54zM108 347c-35 0 -61 13 -75 24v62c15 -15 42 -28 68 -28c31 0 54 17 54 50c0 32 -29 49 -84 50h-2v44l70 92h-105v59h183v-47
l-81 -100c46 -10 83 -37 83 -96c0 -69 -47 -110 -111 -110z" />
    <glyph glyph-name="fiveeighths" unicode="&#x215d;" horiz-adv-x="540" 
d="M423 -5c-62 0 -102 39 -102 101c0 43 21 73 47 87c-24 15 -40 43 -40 77c0 59 41 94 95 94s95 -35 95 -94c0 -34 -16 -62 -40 -77c26 -14 47 -44 47 -87c0 -62 -40 -101 -102 -101zM107 347c-29 0 -58 9 -76 23v62c17 -15 43 -27 69 -27c34 0 54 23 54 58s-21 51 -48 51
c-15 0 -28 -4 -39 -9l-37 16l13 179h160v-58h-109l-6 -75c10 3 20 4 32 4c53 0 99 -32 99 -106c0 -75 -50 -118 -112 -118zM99 0l148 362l134 338h54l-148 -362l-134 -338h-54zM423 156c-24 0 -40 -19 -40 -57c0 -35 15 -55 40 -55s40 20 40 55c0 38 -16 57 -40 57zM423 305
c-23 0 -36 -17 -36 -47c0 -31 13 -49 36 -49s36 18 36 49c0 30 -13 47 -36 47z" />
    <glyph glyph-name="seveneighths" unicode="&#x215e;" horiz-adv-x="540" 
d="M397 -5c-62 0 -102 39 -102 101c0 43 21 73 47 87c-24 15 -40 43 -40 77c0 59 41 94 95 94s95 -35 95 -94c0 -34 -16 -62 -40 -77c26 -14 47 -44 47 -87c0 -62 -40 -101 -102 -101zM397 305c-23 0 -36 -17 -36 -47c0 -31 13 -49 36 -49s36 18 36 49c0 30 -13 47 -36 47z
M397 156c-24 0 -40 -19 -40 -57c0 -35 15 -55 40 -55s40 20 40 55c0 38 -16 57 -40 57zM120 351h-66l100 288h-119v61h186v-46zM64 0l148 362l134 338h54l-148 -362l-134 -338h-54z" />
    <glyph glyph-name="zero.sup" unicode="&#x2070;" 
d="M120 457c-67 0 -98 54 -98 173v13c0 118 31 173 98 173s98 -54 98 -173v-13c0 -119 -31 -173 -98 -173zM120 757c-24 0 -36 -27 -36 -116v-9c0 -89 12 -116 36 -116s36 27 36 116v9c0 88 -12 116 -36 116z" />
    <glyph glyph-name="one.sup" unicode="&#xb9;" horiz-adv-x="195" 
d="M142 462h-66v281l-57 -28v63l74 35h49v-351z" />
    <glyph glyph-name="one.sup_alt" 
d="M222 462h-187v56h66v228l-65 -29v63l80 34h49v-296h57v-56z" />
    <glyph glyph-name="two.sup" unicode="&#xb2;" 
d="M27 462v51l87 129c21 33 33 53 33 74c0 25 -17 39 -40 39c-25 0 -47 -14 -72 -41v67c19 18 46 35 83 35c54 0 95 -33 95 -92c0 -28 -9 -56 -38 -98l-69 -103h106v-61h-185z" />
    <glyph glyph-name="three.sup" unicode="&#xb3;" 
d="M105 457c-35 0 -61 14 -75 25v62c15 -15 42 -28 68 -28c31 0 54 16 54 50c0 32 -29 49 -84 50h-2v44l70 92h-105v59h183v-47l-81 -100c46 -10 83 -38 83 -97c0 -68 -47 -110 -111 -110z" />
    <glyph glyph-name="four.sup" unicode="&#x2074;" 
d="M197 528v-66h-57v66h-123v54l97 231h83v-230h29v-55h-29zM142 583v155h-6l-65 -155h71z" />
    <glyph glyph-name="five.sup" unicode="&#x2075;" 
d="M105 457c-29 0 -58 10 -76 24v62c17 -15 43 -27 69 -27c34 0 54 23 54 58s-21 51 -48 51c-15 0 -28 -4 -39 -10l-37 17l13 179h160v-59h-109l-6 -74c10 2 20 4 32 4c53 0 99 -32 99 -106c0 -75 -50 -119 -112 -119z" />
    <glyph glyph-name="six.sup" unicode="&#x2076;" 
d="M122 457c-22 0 -44 7 -60 24c-24 22 -38 66 -38 136v13c0 139 51 186 117 186c24 0 42 -7 55 -15l-3 -62c-13 10 -29 19 -48 19c-33 0 -54 -28 -57 -84c12 8 26 16 50 16c40 0 81 -27 81 -111c0 -77 -43 -122 -97 -122zM123 514c21 0 36 19 36 62c0 44 -16 60 -38 60
c-14 0 -25 -6 -34 -15v-28c0 -61 14 -79 36 -79z" />
    <glyph glyph-name="seven.sup" unicode="&#x2077;" 
d="M111 462h-66l100 288h-119v61h186v-46z" />
    <glyph glyph-name="eight.sup" unicode="&#x2078;" 
d="M120 457c-62 0 -102 39 -102 101c0 43 21 73 47 87c-24 15 -40 43 -40 77c0 59 41 94 95 94s95 -35 95 -94c0 -34 -16 -62 -40 -77c26 -14 47 -44 47 -87c0 -62 -40 -101 -102 -101zM120 767c-23 0 -36 -17 -36 -47c0 -31 13 -49 36 -49s36 18 36 49c0 30 -13 47 -36 47z
M120 618c-24 0 -40 -19 -40 -57c0 -35 15 -55 40 -55s40 20 40 55c0 38 -16 57 -40 57z" />
    <glyph glyph-name="nine.sup" unicode="&#x2079;" 
d="M119 816c22 0 44 -7 60 -24c24 -23 38 -66 38 -136v-14c0 -138 -51 -185 -117 -185c-23 0 -40 6 -60 17v62c17 -12 36 -21 56 -21c33 0 54 26 57 80c-12 -8 -27 -16 -50 -16c-40 0 -81 28 -81 113c0 78 43 124 97 124zM120 634c14 0 25 5 34 15v30c0 61 -14 80 -36 80
c-21 0 -36 -20 -36 -65c0 -44 16 -60 38 -60z" />
    <glyph glyph-name="zero.inf" unicode="&#x2080;" 
d="M120 -137c-67 0 -98 54 -98 173v13c0 118 31 173 98 173s98 -54 98 -173v-13c0 -119 -31 -173 -98 -173zM120 163c-24 0 -36 -27 -36 -116v-9c0 -89 12 -116 36 -116s36 27 36 116v9c0 88 -12 116 -36 116z" />
    <glyph glyph-name="one.inf" unicode="&#x2081;" horiz-adv-x="195" 
d="M142 -132h-66v281l-57 -28v63l74 35h49v-351z" />
    <glyph glyph-name="one.inf_alt" 
d="M222 -132h-187v56h66v228l-65 -29v63l80 34h49v-296h57v-56z" />
    <glyph glyph-name="two.inf" unicode="&#x2082;" 
d="M27 -132v51l87 129c21 33 33 53 33 74c0 25 -17 39 -40 39c-25 0 -47 -14 -72 -41v67c19 18 46 35 83 35c54 0 95 -33 95 -92c0 -28 -9 -56 -38 -98l-69 -103h106v-61h-185z" />
    <glyph glyph-name="three.inf" unicode="&#x2083;" 
d="M105 -137c-35 0 -61 14 -75 25v62c15 -15 42 -28 68 -28c31 0 54 16 54 50c0 32 -29 49 -84 50h-2v44l70 92h-105v59h183v-47l-81 -100c46 -10 83 -38 83 -97c0 -68 -47 -110 -111 -110z" />
    <glyph glyph-name="four.inf" unicode="&#x2084;" 
d="M197 -66v-66h-57v66h-123v54l97 231h83v-230h29v-55h-29zM142 -11v155h-6l-65 -155h71z" />
    <glyph glyph-name="five.inf" unicode="&#x2085;" 
d="M105 -137c-29 0 -58 10 -76 24v62c17 -15 43 -27 69 -27c34 0 54 23 54 58s-21 51 -48 51c-15 0 -28 -4 -39 -10l-37 17l13 179h160v-59h-109l-6 -74c10 2 20 4 32 4c53 0 99 -32 99 -106c0 -75 -50 -119 -112 -119z" />
    <glyph glyph-name="six.inf" unicode="&#x2086;" 
d="M122 -137c-22 0 -44 7 -60 24c-24 22 -38 66 -38 136v13c0 139 51 186 117 186c24 0 42 -7 55 -15l-3 -62c-13 10 -29 19 -48 19c-33 0 -54 -28 -57 -84c12 8 26 16 50 16c40 0 81 -27 81 -111c0 -77 -43 -122 -97 -122zM123 -80c21 0 36 19 36 62c0 44 -16 60 -38 60
c-14 0 -25 -6 -34 -15v-28c0 -61 14 -79 36 -79z" />
    <glyph glyph-name="seven.inf" unicode="&#x2087;" 
d="M111 -132h-66l100 288h-119v61h186v-46z" />
    <glyph glyph-name="eight.inf" unicode="&#x2088;" 
d="M120 -137c-62 0 -102 39 -102 101c0 43 21 73 47 87c-24 15 -40 43 -40 77c0 59 41 94 95 94s95 -35 95 -94c0 -34 -16 -62 -40 -77c26 -14 47 -44 47 -87c0 -62 -40 -101 -102 -101zM120 173c-23 0 -36 -17 -36 -47c0 -31 13 -49 36 -49s36 18 36 49c0 30 -13 47 -36 47
zM120 24c-24 0 -40 -19 -40 -57c0 -35 15 -55 40 -55s40 20 40 55c0 38 -16 57 -40 57z" />
    <glyph glyph-name="nine.inf" unicode="&#x2089;" 
d="M119 222c22 0 44 -7 60 -24c24 -23 38 -66 38 -136v-14c0 -138 -51 -185 -117 -185c-23 0 -40 6 -60 17v62c17 -12 36 -21 56 -21c33 0 54 26 57 80c-12 -8 -27 -16 -50 -16c-40 0 -81 28 -81 113c0 78 43 124 97 124zM120 40c14 0 25 5 34 15v30c0 61 -14 80 -36 80
c-21 0 -36 -20 -36 -65c0 -44 16 -60 38 -60z" />
    <glyph glyph-name="zero.tab" horiz-adv-x="360" 
d="M180 -9c-108 0 -159 99 -159 343v31c0 245 51 344 159 344c107 0 159 -99 159 -343v-31c0 -245 -53 -344 -159 -344zM180 618c-44 0 -64 -54 -64 -253v-29c0 -200 21 -254 64 -254s64 54 64 253v29c0 200 -21 254 -64 254z" />
    <glyph glyph-name="one.tab" horiz-adv-x="360" 
d="M346 0h-308v87h114v507l-111 -60v100l137 70h72v-617h96v-87z" />
    <glyph glyph-name="two.tab" horiz-adv-x="360" 
d="M331 0h-302v82l147 285c40 80 53 128 53 165c0 55 -32 81 -73 81c-38 0 -75 -23 -115 -60v100c34 35 79 56 133 56c88 0 153 -60 153 -161v-4c0 -59 -16 -110 -66 -209l-120 -237h190v-98z" />
    <glyph glyph-name="three.tab" horiz-adv-x="360" 
d="M140 -9c-48 0 -85 11 -114 34v94c28 -20 62 -35 101 -35c64 0 105 43 105 118v8c0 82 -55 115 -143 121h-3l-1 66l132 206h-186v97h295v-85l-141 -213c81 -20 146 -69 146 -186v-9c0 -135 -80 -216 -191 -216z" />
    <glyph glyph-name="three.tab_alt" horiz-adv-x="360" 
d="M140 -9c-50 0 -90 15 -113 32v94c26 -18 64 -33 101 -33c62 0 104 41 104 119c0 76 -48 115 -141 118h-3v83h4c85 6 137 53 137 123c0 58 -35 90 -87 90c-39 0 -74 -17 -105 -41v92c24 20 66 41 124 41c96 0 165 -61 165 -170c0 -91 -51 -144 -111 -169
c66 -25 115 -75 115 -173c0 -128 -80 -206 -190 -206z" />
    <glyph glyph-name="four.tab" horiz-adv-x="360" 
d="M210 0v139h-192l-2 77l167 487h115v-478h48v-86h-48v-139h-88zM210 225v312h-8l-107 -312h115z" />
    <glyph glyph-name="five.tab" horiz-adv-x="360" 
d="M142 -9c-39 0 -80 13 -103 32v96c27 -20 59 -34 96 -34c68 0 99 54 99 139v4c0 86 -36 117 -82 117c-29 0 -52 -13 -65 -24l-52 34l19 345h251v-95h-176l-9 -182c8 4 31 13 58 13c81 0 154 -55 154 -205v-6c0 -145 -76 -234 -190 -234z" />
    <glyph glyph-name="six.tab" horiz-adv-x="360" 
d="M209 450c68 0 130 -54 130 -208v-14c0 -143 -61 -237 -153 -237c-36 0 -66 10 -89 33c-43 44 -67 132 -67 289v23c0 285 74 373 189 373c34 0 58 -8 78 -18v-94c-21 12 -46 22 -71 22c-71 0 -98 -81 -100 -205c21 20 45 36 83 36zM187 79c40 0 59 54 59 145v15
c0 90 -25 128 -62 128c-27 0 -42 -14 -59 -33v-75c0 -134 25 -180 62 -180z" />
    <glyph glyph-name="seven.tab" horiz-adv-x="360" 
d="M227 600h-199v100h297v-73l-165 -627h-98z" />
    <glyph glyph-name="eight.tab" horiz-adv-x="360" 
d="M180 -9c-96 0 -157 76 -157 198v7c0 88 35 148 81 174c-47 30 -70 82 -70 155v5c0 112 61 179 146 179s147 -67 147 -179v-5c0 -73 -24 -125 -71 -155c46 -26 82 -86 82 -174v-7c0 -122 -62 -198 -158 -198zM180 402c36 0 58 44 58 114v6c0 75 -23 108 -58 108
s-58 -33 -58 -108v-6c0 -70 22 -114 58 -114zM180 71c40 0 66 39 66 123v6c0 83 -28 124 -66 124s-66 -41 -66 -124v-6c0 -84 26 -123 66 -123z" />
    <glyph glyph-name="nine.tab" horiz-adv-x="360" 
d="M153 242c-69 0 -131 57 -131 213v13c0 144 62 241 154 241c35 0 65 -10 89 -33c43 -44 67 -132 67 -288v-24c0 -285 -75 -373 -189 -373c-35 0 -60 7 -89 21v95c31 -17 56 -26 82 -26c69 0 96 80 99 196c-21 -20 -45 -35 -82 -35zM175 621c-40 0 -59 -57 -59 -149v-15
c0 -91 24 -132 62 -132c27 0 42 14 58 33v82c0 134 -24 181 -61 181z" />
    <glyph glyph-name="period.tab" horiz-adv-x="180" 
d="M37 0v132h106v-132h-106z" />
    <glyph glyph-name="comma.tab" horiz-adv-x="180" 
d="M25 -141l-11 41c57 14 73 57 69 100h-46v132h106v-111c0 -94 -37 -146 -118 -162z" />
    <glyph glyph-name="colon.tab" horiz-adv-x="180" 
d="M37 400v132h106v-132h-106zM37 0v132h106v-132h-106z" />
    <glyph glyph-name="semicolon.tab" horiz-adv-x="180" 
d="M37 400v132h106v-132h-106zM25 -141l-11 41c57 14 73 57 69 100h-46v132h106v-111c0 -94 -37 -146 -118 -162z" />
    <glyph glyph-name="twodotleader.tab" horiz-adv-x="360" 
d="M218 0v128h105v-128h-105zM38 0v128h105v-128h-105z" />
    <glyph glyph-name="periodcentered.tab" horiz-adv-x="180" 
d="M37 240v132h106v-132h-106z" />
    <glyph glyph-name="slash.tab" horiz-adv-x="360" 
d="M344 769l-256 -868h-82l256 868h82z" />
    <glyph glyph-name="bar.tab" horiz-adv-x="180" 
d="M52 -99v868h77v-868h-77z" />
    <glyph glyph-name="underscore.tab" horiz-adv-x="360" 
d="M-2 -153v75h364v-75h-364z" />
    <glyph glyph-name="dollar.tab" horiz-adv-x="360" 
d="M243 776l-6 -74c29 -5 54 -14 74 -25v-103c-40 25 -71 37 -106 37c-44 0 -80 -31 -80 -78v-1c0 -46 26 -70 83 -125c95 -89 130 -139 130 -224v-2c0 -103 -63 -172 -151 -184l-7 -106h-66l8 107c-33 4 -61 16 -90 33v102c48 -32 86 -44 122 -44c54 0 85 36 85 88v2
c0 41 -18 72 -81 130c-86 79 -131 126 -131 217v2c0 97 60 164 144 175l6 73h66z" />
    <glyph glyph-name="sterling.tab" horiz-adv-x="360" 
d="M78 383v128c0 71 15 119 50 154c28 27 67 43 115 43c37 0 61 -8 79 -17l-1 -95c-17 8 -38 16 -62 16c-25 0 -42 -7 -56 -21c-17 -17 -24 -45 -24 -81v-127h114v-89h-114v-204h165v-90h-316v64l50 22v208h-50v89h50z" />
    <glyph glyph-name="Euro.tab" horiz-adv-x="360" 
d="M13 397v73h56c22 164 99 238 190 238c29 0 50 -5 74 -18v-102c-25 17 -45 24 -66 24c-46 0 -83 -42 -97 -142h111v-73h-118v-34v-25c0 -11 -1 -21 0 -30h118v-74h-112c14 -107 52 -146 100 -146c18 0 41 7 66 24v-96c-27 -18 -52 -24 -82 -24c-91 0 -164 76 -185 242h-55
v74h49v30v23v36h-49z" />
    <glyph glyph-name="yen.tab" horiz-adv-x="360" 
d="M45 185h88v73h-88v74h71l-110 368h100l75 -307l76 307h97l-111 -368h72v-74h-88v-73h88v-75h-88v-110h-94v110h-88v75z" />
    <glyph glyph-name="cent.tab" horiz-adv-x="360" 
d="M237 704v-79c35 -3 62 -16 82 -30v-98c-25 18 -54 37 -89 37c-58 0 -97 -46 -97 -169v-28c0 -120 38 -167 97 -167c33 0 65 18 90 38v-93c-18 -16 -45 -33 -83 -37v-84h-66v88c-85 22 -135 108 -135 257v24c0 147 52 233 135 256v85h66z" />
    <glyph glyph-name="numbersign.tab" horiz-adv-x="360" 
d="M13 255h58l11 192h-50v88h56l10 165h64l-11 -165h78l11 165h63l-10 -165h55v-88h-60l-11 -192h52v-87h-57l-10 -168h-64l10 168h-78l-10 -168h-64l10 168h-53v87zM146 447l-11 -192h79l10 192h-78z" />
    <glyph glyph-name="paragraph.tab" horiz-adv-x="360" 
d="M212 0v235h-2c-104 7 -192 82 -192 232v2c0 160 96 231 222 231h72v-700h-100z" />
    <glyph glyph-name="section.tab" horiz-adv-x="360" 
d="M259 218c27 -29 40 -59 40 -92v-2c0 -83 -56 -133 -137 -133c-24 0 -61 6 -89 20v92c31 -18 57 -26 82 -26c34 0 54 19 54 47v1c0 34 -35 57 -85 88c-67 42 -110 77 -110 145v2c0 49 29 97 87 122c-27 29 -40 59 -40 92v2c0 83 56 133 137 133c24 0 61 -6 89 -20v-91
c-31 17 -57 25 -82 25c-34 0 -54 -19 -54 -47v-1c0 -33 35 -57 85 -88c67 -42 110 -77 110 -145v-2c0 -49 -29 -97 -87 -122zM147 441c-36 -20 -49 -48 -49 -69v-2c0 -27 17 -53 90 -97c3 -1 23 -14 25 -14c37 20 49 48 49 69v2c0 27 -16 53 -90 97c-3 1 -23 14 -25 14z" />
    <glyph glyph-name="degree.tab" horiz-adv-x="360" 
d="M180 309c-78 0 -133 76 -133 193v12c0 116 55 193 133 193s133 -77 133 -193v-12c0 -117 -55 -193 -133 -193zM180 380c39 0 63 44 63 122v12c0 78 -24 122 -63 122s-63 -44 -63 -122v-12c0 -78 24 -122 63 -122z" />
    <glyph glyph-name="percent.tab" horiz-adv-x="360" 
d="M106 706c65 0 96 -62 96 -169v-27c0 -30 -3 -57 -8 -80l99 270h53l-147 -358h-6l-10 -26c16 27 40 43 71 43c65 0 96 -61 96 -169v-26c0 -108 -31 -170 -96 -170s-96 62 -96 169v27c0 29 3 55 8 78l-99 -268h-53l147 357h6l10 29c-16 -29 -39 -45 -71 -45
c-65 0 -96 62 -96 169v26c0 108 31 170 96 170zM253 299c-25 0 -35 -32 -35 -109v-27c0 -76 10 -109 35 -109s35 33 35 109v27c0 77 -10 109 -35 109zM107 646c-25 0 -35 -33 -35 -109v-27c0 -76 10 -109 35 -109s35 33 35 109v27c0 76 -10 109 -35 109z" />
    <glyph glyph-name="quotedbl.tab" horiz-adv-x="360" 
d="M217 404l7 296h101l-1 -9l-70 -287h-37zM59 404l7 296h101v-9l-70 -287h-38z" />
    <glyph glyph-name="quotesingle.tab" horiz-adv-x="180" 
d="M50 404l8 296h100v-9l-69 -287h-39z" />
    <glyph glyph-name="plus.tab" horiz-adv-x="360" 
d="M337 308h-115v-121h-84v121h-115v88h115v121h84v-121h115v-88z" />
    <glyph glyph-name="minus.tab" horiz-adv-x="360" 
d="M336 304h-311v96h311v-96z" />
    <glyph glyph-name="divide.tab" horiz-adv-x="360" 
d="M134 455v100h92v-100h-92zM336 308h-311v88h311v-88zM134 149v100h92v-100h-92z" />
    <glyph glyph-name="equal.tab" horiz-adv-x="360" 
d="M333 393h-306v94h306v-94zM333 217h-306v94h306v-94z" />
    <glyph glyph-name="multiply.tab" horiz-adv-x="360" 
d="M269 185l-89 102l-90 -102l-66 56l99 111l-99 111l67 56l89 -102l90 102l67 -56l-100 -111l100 -111z" />
    <glyph glyph-name="less.tab" horiz-adv-x="360" 
d="M322 129l-290 181v84l290 181v-111l-189 -111l189 -112v-112z" />
    <glyph glyph-name="greater.tab" horiz-adv-x="360" 
d="M327 310l-290 -181v111l189 111l-189 112v112l290 -181v-84z" />
    <glyph glyph-name="plusminus.tab" horiz-adv-x="360" 
d="M337 312h-115v-122h-84v122h-115v87h115v122h84v-122h115v-87zM336 28h-311v85h311v-85z" />
    <glyph glyph-name="space" unicode=" " horiz-adv-x="161" 
 />
    <glyph glyph-name="uni00A0" unicode="&#xa0;" horiz-adv-x="161" 
 />
    <glyph glyph-name="emspace" unicode="&#x2003;" horiz-adv-x="1000" 
 />
    <glyph glyph-name="enspace" unicode="&#x2002;" horiz-adv-x="500" 
 />
    <glyph glyph-name="threeperemspace" unicode="&#x2004;" horiz-adv-x="333" 
 />
    <glyph glyph-name="fourperemspace" unicode="&#x2005;" horiz-adv-x="250" 
 />
    <glyph glyph-name="thinspace" unicode="&#x2009;" horiz-adv-x="123" 
 />
    <glyph glyph-name="hairspace" unicode="&#x200a;" horiz-adv-x="68" 
 />
    <glyph glyph-name="space.tab" horiz-adv-x="180" 
 />
    <glyph glyph-name="figurespace" unicode="&#x2007;" horiz-adv-x="360" 
 />
    <glyph glyph-name="NUL" horiz-adv-x="0" 
 />
    <glyph glyph-name="asciicircum" unicode="^" horiz-adv-x="440" 
d="M109 511l72 180h78l73 -180h-66l-47 122l-47 -122h-63z" />
    <glyph glyph-name="asciitilde" unicode="~" horiz-adv-x="347" 
d="M230 253c-28 0 -45 12 -62 25s-28 21 -43 21s-26 -15 -35 -48l-49 15c9 71 45 100 76 100c28 0 45 -12 62 -26c16 -12 27 -20 42 -20c16 0 27 15 35 47l50 -15c-9 -70 -45 -99 -76 -99z" />
    <glyph glyph-name="hfjslug" horiz-adv-x="694" 
d="M644 -200h-208l-8 14h-163l-8 -14h-207v303c18 0 32 14 32 32c0 17 -14 32 -32 32v554h100l30 79h334l29 -79h101v-921zM400 563v-172h15v78h38v14h-38v66h43v14h-58zM184 563v-172h15v79h47v-79h15v172h-15v-79h-47v79h-15zM460 394c5 -2 14 -4 21 -4c20 0 31 11 31 36
v137h-16v-137c0 -16 -5 -22 -16 -22c-6 0 -15 3 -20 5v-15zM371 465l-13 3c-2 -9 -5 -21 -8 -30h-1l-16 31c13 12 23 26 23 42s-9 31 -27 31c-17 0 -28 -15 -28 -31c0 -15 6 -24 14 -39c-15 -12 -23 -28 -23 -47c0 -22 12 -37 29 -37c13 0 23 9 29 24h1l12 -24l12 6l-17 32
c5 12 9 25 13 39zM523 323v-46h8v12l8 8l15 -20h10l-20 26l18 20h-10l-20 -24h-1v24h-8zM488 292l10 -15h9l-12 17c5 2 10 6 10 14c0 9 -7 15 -17 15h-20v-46h8v15h12zM426 276c14 0 24 11 24 24c0 12 -10 24 -24 24s-24 -12 -24 -24c0 -13 10 -24 24 -24zM370 301l-13 22
h-9l18 -29v-17h8v17l18 29h-9zM193 323v-46h34v7h-26v13h23v7h-23v12h26v7h-34zM132 323v-46h8v32l25 -32h7v46h-8v-32l-25 32h-7zM241 323l14 -47h8l11 34h1l11 -34h8l14 47h-8l-10 -35h-1l-11 35h-7l-11 -35h-1l-10 35h-8zM327 479c-7 13 -12 22 -12 32s6 19 14 19
s13 -9 13 -19c0 -12 -5 -21 -15 -32zM342 423c-5 -13 -12 -21 -20 -21c-9 0 -16 10 -16 25c0 13 7 26 16 35zM487 299h-11v17h11c6 0 10 -3 10 -8s-4 -9 -10 -9zM426 283c-10 0 -16 8 -16 17c0 8 6 17 16 17s16 -9 16 -17c0 -9 -6 -17 -16 -17z" />
    <glyph glyph-name="i.dot" horiz-adv-x="178" 
d="M40 602v104h98v-104h-98zM42 0v533h95v-533h-95z" />
    <glyph glyph-name="fraction" unicode="&#x2044;" horiz-adv-x="60" 
d="M-138 0l148 362l134 338h54l-148 -362l-134 -338h-54z" />
    <glyph glyph-name="zero.num" 
d="M120 347c-67 0 -98 53 -98 172v13c0 119 31 173 98 173s98 -54 98 -173v-13c0 -118 -31 -172 -98 -172zM120 647c-24 0 -36 -28 -36 -117v-9c0 -88 12 -116 36 -116s36 27 36 116v9c0 89 -12 117 -36 117z" />
    <glyph glyph-name="one.num" horiz-adv-x="195" 
d="M142 351h-66v281l-57 -28v64l74 34h49v-351z" />
    <glyph glyph-name="one.num_alt" 
d="M222 351h-187v56h66v228l-65 -29v63l80 34h49v-296h57v-56z" />
    <glyph glyph-name="two.num" 
d="M27 351v52l87 128c21 34 33 53 33 74c0 25 -17 39 -40 39c-25 0 -47 -14 -72 -41v67c19 18 46 35 83 35c54 0 95 -33 95 -92c0 -28 -9 -56 -38 -98l-69 -103h106v-61h-185z" />
    <glyph glyph-name="three.num" 
d="M105 347c-35 0 -61 13 -75 24v62c15 -15 42 -28 68 -28c31 0 54 17 54 50c0 32 -29 49 -84 50h-2v44l70 92h-105v59h183v-47l-81 -100c46 -10 83 -37 83 -96c0 -69 -47 -110 -111 -110z" />
    <glyph glyph-name="four.num" 
d="M197 418v-67h-57v67h-123v53l97 231h83v-230h29v-54h-29zM142 472v155h-6l-65 -155h71z" />
    <glyph glyph-name="five.num" 
d="M105 347c-29 0 -58 9 -76 23v62c17 -15 43 -27 69 -27c34 0 54 23 54 58s-21 51 -48 51c-15 0 -28 -4 -39 -9l-37 16l13 179h160v-58h-109l-6 -75c10 3 20 4 32 4c53 0 99 -32 99 -106c0 -75 -50 -118 -112 -118z" />
    <glyph glyph-name="six.num" 
d="M122 347c-22 0 -44 7 -60 23c-24 23 -38 66 -38 136v14c0 138 51 185 117 185c24 0 42 -7 55 -14l-3 -63c-13 10 -29 19 -48 19c-33 0 -54 -28 -57 -84c12 8 26 17 50 17c40 0 81 -28 81 -112c0 -77 -43 -121 -97 -121zM123 403c21 0 36 19 36 62c0 44 -16 60 -38 60
c-14 0 -25 -6 -34 -15v-28c0 -60 14 -79 36 -79z" />
    <glyph glyph-name="seven.num" 
d="M111 351h-66l100 288h-119v61h186v-46z" />
    <glyph glyph-name="eight.num" 
d="M120 347c-62 0 -102 39 -102 100c0 44 21 73 47 87c-24 15 -40 43 -40 78c0 59 41 93 95 93s95 -34 95 -93c0 -35 -16 -63 -40 -78c26 -14 47 -43 47 -87c0 -61 -40 -100 -102 -100zM120 657c-23 0 -36 -17 -36 -48s13 -49 36 -49s36 18 36 49s-13 48 -36 48zM120 508
c-24 0 -40 -20 -40 -57c0 -36 15 -56 40 -56s40 20 40 56c0 37 -16 57 -40 57z" />
    <glyph glyph-name="nine.num" 
d="M119 705c22 0 44 -7 60 -24c24 -22 38 -66 38 -136v-13c0 -138 -51 -185 -117 -185c-23 0 -40 6 -60 16v62c17 -12 36 -21 56 -21c33 0 54 26 57 81c-12 -8 -27 -17 -50 -17c-40 0 -81 28 -81 113c0 78 43 124 97 124zM120 523c14 0 25 5 34 15v30c0 61 -14 80 -36 80
c-21 0 -36 -20 -36 -64c0 -45 16 -61 38 -61z" />
    <glyph glyph-name="zero.den" 
d="M120 -5c-67 0 -98 54 -98 173v13c0 118 31 173 98 173s98 -54 98 -173v-13c0 -119 -31 -173 -98 -173zM120 295c-24 0 -36 -27 -36 -116v-9c0 -89 12 -116 36 -116s36 27 36 116v9c0 88 -12 116 -36 116z" />
    <glyph glyph-name="one.den" horiz-adv-x="195" 
d="M142 0h-66v281l-57 -28v63l74 35h49v-351z" />
    <glyph glyph-name="one.den_alt" 
d="M222 0h-187v56h66v228l-65 -29v63l80 34h49v-296h57v-56z" />
    <glyph glyph-name="two.den" 
d="M27 0v51l87 129c21 33 33 53 33 74c0 25 -17 39 -40 39c-25 0 -47 -14 -72 -41v67c19 18 46 35 83 35c54 0 95 -33 95 -92c0 -28 -9 -56 -38 -98l-69 -103h106v-61h-185z" />
    <glyph glyph-name="three.den" 
d="M105 -5c-35 0 -61 14 -75 25v62c15 -15 42 -28 68 -28c31 0 54 16 54 50c0 32 -29 49 -84 50h-2v44l70 92h-105v59h183v-47l-81 -100c46 -10 83 -38 83 -97c0 -68 -47 -110 -111 -110z" />
    <glyph glyph-name="four.den" 
d="M197 66v-66h-57v66h-123v54l97 231h83v-230h29v-55h-29zM142 121v155h-6l-65 -155h71z" />
    <glyph glyph-name="five.den" 
d="M105 -5c-29 0 -58 10 -76 24v62c17 -15 43 -27 69 -27c34 0 54 23 54 58s-21 51 -48 51c-15 0 -28 -4 -39 -10l-37 17l13 179h160v-59h-109l-6 -74c10 2 20 4 32 4c53 0 99 -32 99 -106c0 -75 -50 -119 -112 -119z" />
    <glyph glyph-name="six.den" 
d="M122 -5c-22 0 -44 7 -60 24c-24 22 -38 66 -38 136v13c0 139 51 186 117 186c24 0 42 -7 55 -15l-3 -62c-13 10 -29 19 -48 19c-33 0 -54 -28 -57 -84c12 8 26 16 50 16c40 0 81 -27 81 -111c0 -77 -43 -122 -97 -122zM123 52c21 0 36 19 36 62c0 44 -16 60 -38 60
c-14 0 -25 -6 -34 -15v-28c0 -61 14 -79 36 -79z" />
    <glyph glyph-name="seven.den" 
d="M111 0h-66l100 288h-119v61h186v-46z" />
    <glyph glyph-name="eight.den" 
d="M120 -5c-62 0 -102 39 -102 101c0 43 21 73 47 87c-24 15 -40 43 -40 77c0 59 41 94 95 94s95 -35 95 -94c0 -34 -16 -62 -40 -77c26 -14 47 -44 47 -87c0 -62 -40 -101 -102 -101zM120 305c-23 0 -36 -17 -36 -47c0 -31 13 -49 36 -49s36 18 36 49c0 30 -13 47 -36 47z
M120 156c-24 0 -40 -19 -40 -57c0 -35 15 -55 40 -55s40 20 40 55c0 38 -16 57 -40 57z" />
    <glyph glyph-name="nine.den" 
d="M119 354c22 0 44 -7 60 -24c24 -23 38 -66 38 -136v-14c0 -138 -51 -185 -117 -185c-23 0 -40 6 -60 17v62c17 -12 36 -21 56 -21c33 0 54 26 57 80c-12 -8 -27 -16 -50 -16c-40 0 -81 28 -81 113c0 78 43 124 97 124zM120 172c14 0 25 5 34 15v30c0 61 -14 80 -36 80
c-21 0 -36 -20 -36 -65c0 -44 16 -60 38 -60z" />
    <glyph glyph-name="acute" unicode="&#xb4;" horiz-adv-x="500" 
d="M167 575l79 141l79 -42l-93 -99h-65z" />
    <glyph glyph-name="hungarumlaut" unicode="&#x2dd;" horiz-adv-x="500" 
d="M224 575l80 141l72 -41l-90 -100h-62zM118 575l80 141l72 -41l-90 -100h-62z" />
    <glyph glyph-name="caron.alt" horiz-adv-x="500" 
d="M182 560l9 146h67v-2l-34 -144h-42z" />
    <glyph glyph-name="grave" unicode="`" horiz-adv-x="500" 
d="M260 575l-94 99l79 42l80 -141h-65z" />
    <glyph glyph-name="circumflex" unicode="&#x2c6;" horiz-adv-x="500" 
d="M139 577l75 134h72l75 -134h-65l-47 66l-47 -66h-63z" />
    <glyph glyph-name="caron" unicode="&#x2c7;" horiz-adv-x="500" 
d="M361 711l-75 -134h-72l-75 134h65l47 -66l47 66h63z" />
    <glyph glyph-name="breve" unicode="&#x2d8;" horiz-adv-x="500" 
d="M250 572c-58 0 -105 35 -110 112h59c5 -31 21 -50 51 -50s46 19 51 50h60c-6 -77 -53 -112 -111 -112z" />
    <glyph glyph-name="tilde" unicode="&#x2dc;" horiz-adv-x="500" 
d="M307 575c-20 0 -39 11 -59 22c-17 11 -30 17 -39 17c-14 0 -20 -11 -28 -40l-55 13c13 70 32 97 67 97c20 0 39 -10 59 -22c17 -11 30 -17 39 -17c15 0 20 11 28 41l55 -14c-13 -69 -32 -97 -67 -97z" />
    <glyph glyph-name="macron" unicode="&#xaf;" horiz-adv-x="500" 
d="M142 581v66h216v-66h-216z" />
    <glyph glyph-name="dieresis" unicode="&#xa8;" horiz-adv-x="500" 
d="M271 580v96h88v-96h-88zM141 580v96h88v-96h-88z" />
    <glyph glyph-name="dotaccent" unicode="&#x2d9;" horiz-adv-x="500" 
d="M205 580v96h90v-96h-90z" />
    <glyph glyph-name="ring" unicode="&#x2da;" horiz-adv-x="500" 
d="M250 571c-47 0 -85 37 -85 87s38 87 85 87s85 -37 85 -87c0 -49 -38 -87 -85 -87zM250 611c24 0 42 20 42 47s-18 48 -42 48s-42 -21 -42 -48s18 -47 42 -47z" />
    <glyph glyph-name="acute.cap" horiz-adv-x="500" 
d="M166 737l79 120l85 -42l-93 -78h-71z" />
    <glyph glyph-name="hungarumlaut.cap" horiz-adv-x="500" 
d="M113 737l79 120l77 -42l-89 -78h-67zM223 737l79 120l77 -42l-89 -78h-67z" />
    <glyph glyph-name="grave.cap" horiz-adv-x="500" 
d="M326 737h-71l-93 78l85 42z" />
    <glyph glyph-name="circumflex.cap" horiz-adv-x="500" 
d="M137 738l73 112h80l73 -112h-70l-44 51l-44 -51h-68z" />
    <glyph glyph-name="caron.cap" horiz-adv-x="500" 
d="M363 850l-73 -112h-80l-73 112h70l44 -51l44 51h68z" />
    <glyph glyph-name="breve.cap" horiz-adv-x="500" 
d="M250 733c-60 0 -106 33 -109 102h60c6 -27 22 -39 49 -39c26 0 43 12 49 39h60c-4 -69 -49 -102 -109 -102z" />
    <glyph glyph-name="tilde.cap" horiz-adv-x="500" 
d="M308 736c-21 0 -40 10 -59 20c-18 10 -32 17 -41 17c-13 0 -19 -11 -27 -38l-58 14c13 68 33 96 69 96c22 0 42 -10 62 -21c17 -9 29 -15 38 -15c13 0 19 10 27 38l58 -15c-13 -67 -33 -96 -69 -96z" />
    <glyph glyph-name="macron.cap" horiz-adv-x="500" 
d="M137 742v68h227v-68h-227z" />
    <glyph glyph-name="dieresis.cap" horiz-adv-x="500" 
d="M273 742v94h90v-94h-90zM137 742v94h90v-94h-90z" />
    <glyph glyph-name="dotaccent.cap" horiz-adv-x="500" 
d="M204 742v94h92v-94h-92z" />
    <glyph glyph-name="ring.cap" horiz-adv-x="500" 
d="M250 733c-47 0 -85 34 -85 81c0 46 39 81 85 81c47 0 85 -34 85 -81s-38 -81 -85 -81zM250 772c24 0 42 17 42 42c0 24 -18 42 -42 42s-42 -18 -42 -42c0 -25 18 -42 42 -42z" />
    <glyph glyph-name="commaaccent" unicode="&#x326;" horiz-adv-x="500" 
d="M209 -213l-7 33c37 8 48 21 46 53h-40v80h90v-72c0 -61 -31 -85 -89 -94z" />
    <glyph glyph-name="cedilla" unicode="&#xb8;" horiz-adv-x="500" 
d="M246 -122l-84 32l69 107h62z" />
    <glyph glyph-name="ogonek" unicode="&#x2db;" horiz-adv-x="500" 
d="M307 -81v-58c-14 -2 -25 -3 -34 -3c-57 0 -87 23 -87 64c0 33 17 57 45 86h65c-22 -28 -30 -45 -30 -62c0 -22 14 -29 41 -27z" />
    </font>
</defs>
</svg>
